<mxfile host="65bd71144e">
    <diagram id="dznuEce23yVcd5w3RYcj" name="Page-1">
        <mxGraphModel dx="670" dy="576" grid="1" gridSize="10" guides="1" tooltips="1" connect="1" arrows="1" fold="1" page="1" pageScale="1" pageWidth="850" pageHeight="1100" math="0" shadow="0">
            <root>
                <mxCell id="0"/>
                <mxCell id="1" parent="0"/>
                <mxCell id="2" value="User" style="swimlane;fontStyle=0;childLayout=stackLayout;horizontal=1;startSize=40;fillColor=#0050ef;horizontalStack=0;resizeParent=1;resizeParentMax=0;resizeLast=0;collapsible=1;marginBottom=0;html=1;fontColor=#ffffff;strokeColor=#001DBC;" parent="1" vertex="1">
                    <mxGeometry x="590" y="326" width="160" height="144" as="geometry">
                        <mxRectangle x="40" y="80" width="120" height="40" as="alternateBounds"/>
                    </mxGeometry>
                </mxCell>
                <mxCell id="6" value="id" style="text;strokeColor=#666666;fillColor=#f5f5f5;align=left;verticalAlign=top;spacingLeft=4;spacingRight=4;overflow=hidden;rotatable=0;points=[[0,0.5],[1,0.5]];portConstraint=eastwest;whiteSpace=wrap;html=1;fontColor=#333333;" parent="2" vertex="1">
                    <mxGeometry y="40" width="160" height="26" as="geometry"/>
                </mxCell>
                <mxCell id="3" value="username" style="text;strokeColor=#666666;fillColor=#f5f5f5;align=left;verticalAlign=top;spacingLeft=4;spacingRight=4;overflow=hidden;rotatable=0;points=[[0,0.5],[1,0.5]];portConstraint=eastwest;whiteSpace=wrap;html=1;fontColor=#333333;" parent="2" vertex="1">
                    <mxGeometry y="66" width="160" height="26" as="geometry"/>
                </mxCell>
                <mxCell id="4" value="password" style="text;strokeColor=#666666;fillColor=#f5f5f5;align=left;verticalAlign=top;spacingLeft=4;spacingRight=4;overflow=hidden;rotatable=0;points=[[0,0.5],[1,0.5]];portConstraint=eastwest;whiteSpace=wrap;html=1;fontColor=#333333;" parent="2" vertex="1">
                    <mxGeometry y="92" width="160" height="26" as="geometry"/>
                </mxCell>
                <mxCell id="5" value="email" style="text;strokeColor=#666666;fillColor=#f5f5f5;align=left;verticalAlign=top;spacingLeft=4;spacingRight=4;overflow=hidden;rotatable=0;points=[[0,0.5],[1,0.5]];portConstraint=eastwest;whiteSpace=wrap;html=1;fontColor=#333333;" parent="2" vertex="1">
                    <mxGeometry y="118" width="160" height="26" as="geometry"/>
                </mxCell>
                <mxCell id="7" value="Order" style="swimlane;fontStyle=0;childLayout=stackLayout;horizontal=1;startSize=40;fillColor=#008a00;horizontalStack=0;resizeParent=1;resizeParentMax=0;resizeLast=0;collapsible=1;marginBottom=0;html=1;strokeColor=#005700;fontColor=#ffffff;" parent="1" vertex="1">
                    <mxGeometry x="80" y="300" width="160" height="222" as="geometry">
                        <mxRectangle x="240" y="80" width="120" height="40" as="alternateBounds"/>
                    </mxGeometry>
                </mxCell>
                <mxCell id="8" value="id" style="text;strokeColor=#666666;fillColor=#f5f5f5;align=left;verticalAlign=top;spacingLeft=4;spacingRight=4;overflow=hidden;rotatable=0;points=[[0,0.5],[1,0.5]];portConstraint=eastwest;whiteSpace=wrap;html=1;fontColor=#333333;" parent="7" vertex="1">
                    <mxGeometry y="40" width="160" height="26" as="geometry"/>
                </mxCell>
                <mxCell id="9" value="User" style="text;strokeColor=#001DBC;fillColor=#0050ef;align=left;verticalAlign=top;spacingLeft=4;spacingRight=4;overflow=hidden;rotatable=0;points=[[0,0.5],[1,0.5]];portConstraint=eastwest;whiteSpace=wrap;html=1;fontColor=#ffffff;" parent="7" vertex="1">
                    <mxGeometry y="66" width="160" height="26" as="geometry"/>
                </mxCell>
                <mxCell id="10" value="Table" style="text;strokeColor=#005700;fillColor=#008a00;align=left;verticalAlign=top;spacingLeft=4;spacingRight=4;overflow=hidden;rotatable=0;points=[[0,0.5],[1,0.5]];portConstraint=eastwest;whiteSpace=wrap;html=1;fontColor=#ffffff;" parent="7" vertex="1">
                    <mxGeometry y="92" width="160" height="26" as="geometry"/>
                </mxCell>
                <mxCell id="11" value="Ordered_Food" style="text;strokeColor=#A50040;fillColor=#d80073;align=left;verticalAlign=top;spacingLeft=4;spacingRight=4;overflow=hidden;rotatable=0;points=[[0,0.5],[1,0.5]];portConstraint=eastwest;whiteSpace=wrap;html=1;fontColor=#ffffff;" parent="7" vertex="1">
                    <mxGeometry y="118" width="160" height="26" as="geometry"/>
                </mxCell>
                <mxCell id="43" value="complete" style="text;strokeColor=#666666;fillColor=#f5f5f5;align=left;verticalAlign=top;spacingLeft=4;spacingRight=4;overflow=hidden;rotatable=0;points=[[0,0.5],[1,0.5]];portConstraint=eastwest;whiteSpace=wrap;html=1;fontColor=#333333;" parent="7" vertex="1">
                    <mxGeometry y="144" width="160" height="26" as="geometry"/>
                </mxCell>
                <mxCell id="44" value="no_of_people" style="text;strokeColor=#666666;fillColor=#f5f5f5;align=left;verticalAlign=top;spacingLeft=4;spacingRight=4;overflow=hidden;rotatable=0;points=[[0,0.5],[1,0.5]];portConstraint=eastwest;whiteSpace=wrap;html=1;fontColor=#333333;" parent="7" vertex="1">
                    <mxGeometry y="170" width="160" height="26" as="geometry"/>
                </mxCell>
                <mxCell id="68" value="total_price" style="text;strokeColor=#666666;fillColor=#f5f5f5;align=left;verticalAlign=top;spacingLeft=4;spacingRight=4;overflow=hidden;rotatable=0;points=[[0,0.5],[1,0.5]];portConstraint=eastwest;whiteSpace=wrap;html=1;fontColor=#333333;" parent="7" vertex="1">
                    <mxGeometry y="196" width="160" height="26" as="geometry"/>
                </mxCell>
                <mxCell id="12" value="Table" style="swimlane;fontStyle=0;childLayout=stackLayout;horizontal=1;startSize=40;fillColor=#008a00;horizontalStack=0;resizeParent=1;resizeParentMax=0;resizeLast=0;collapsible=1;marginBottom=0;html=1;strokeColor=#005700;fontColor=#ffffff;" parent="1" vertex="1">
                    <mxGeometry x="280" y="80" width="160" height="144" as="geometry">
                        <mxRectangle x="240" y="80" width="120" height="40" as="alternateBounds"/>
                    </mxGeometry>
                </mxCell>
                <mxCell id="13" value="id" style="text;strokeColor=#666666;fillColor=#f5f5f5;align=left;verticalAlign=top;spacingLeft=4;spacingRight=4;overflow=hidden;rotatable=0;points=[[0,0.5],[1,0.5]];portConstraint=eastwest;whiteSpace=wrap;html=1;fontColor=#333333;" parent="12" vertex="1">
                    <mxGeometry y="40" width="160" height="26" as="geometry"/>
                </mxCell>
                <mxCell id="14" value="max_no" style="text;strokeColor=#666666;fillColor=#f5f5f5;align=left;verticalAlign=top;spacingLeft=4;spacingRight=4;overflow=hidden;rotatable=0;points=[[0,0.5],[1,0.5]];portConstraint=eastwest;whiteSpace=wrap;html=1;fontColor=#333333;" parent="12" vertex="1">
                    <mxGeometry y="66" width="160" height="26" as="geometry"/>
                </mxCell>
                <mxCell id="69" value="available" style="text;strokeColor=#666666;fillColor=#f5f5f5;align=left;verticalAlign=top;spacingLeft=4;spacingRight=4;overflow=hidden;rotatable=0;points=[[0,0.5],[1,0.5]];portConstraint=eastwest;whiteSpace=wrap;html=1;fontColor=#333333;" parent="12" vertex="1">
                    <mxGeometry y="92" width="160" height="26" as="geometry"/>
                </mxCell>
                <mxCell id="60" value="Restaurant" style="text;strokeColor=#005700;fillColor=#008a00;align=left;verticalAlign=top;spacingLeft=4;spacingRight=4;overflow=hidden;rotatable=0;points=[[0,0.5],[1,0.5]];portConstraint=eastwest;whiteSpace=wrap;html=1;fontColor=#ffffff;" parent="12" vertex="1">
                    <mxGeometry y="118" width="160" height="26" as="geometry"/>
                </mxCell>
                <mxCell id="17" value="Ordered_Food" style="swimlane;fontStyle=0;childLayout=stackLayout;horizontal=1;startSize=40;fillColor=#d80073;horizontalStack=0;resizeParent=1;resizeParentMax=0;resizeLast=0;collapsible=1;marginBottom=0;html=1;strokeColor=#A50040;fontColor=#ffffff;" parent="1" vertex="1">
                    <mxGeometry x="80" y="692" width="160" height="144" as="geometry">
                        <mxRectangle x="240" y="80" width="120" height="40" as="alternateBounds"/>
                    </mxGeometry>
                </mxCell>
                <mxCell id="18" value="id" style="text;strokeColor=#666666;fillColor=#f5f5f5;align=left;verticalAlign=top;spacingLeft=4;spacingRight=4;overflow=hidden;rotatable=0;points=[[0,0.5],[1,0.5]];portConstraint=eastwest;whiteSpace=wrap;html=1;fontColor=#333333;" parent="17" vertex="1">
                    <mxGeometry y="40" width="160" height="26" as="geometry"/>
                </mxCell>
                <mxCell id="19" value="Food" style="text;strokeColor=#A50040;fillColor=#d80073;align=left;verticalAlign=top;spacingLeft=4;spacingRight=4;overflow=hidden;rotatable=0;points=[[0,0.5],[1,0.5]];portConstraint=eastwest;whiteSpace=wrap;html=1;fontColor=#ffffff;" parent="17" vertex="1">
                    <mxGeometry y="66" width="160" height="26" as="geometry"/>
                </mxCell>
                <mxCell id="20" value="No" style="text;strokeColor=#666666;fillColor=#f5f5f5;align=left;verticalAlign=top;spacingLeft=4;spacingRight=4;overflow=hidden;rotatable=0;points=[[0,0.5],[1,0.5]];portConstraint=eastwest;whiteSpace=wrap;html=1;fontColor=#333333;" parent="17" vertex="1">
                    <mxGeometry y="92" width="160" height="26" as="geometry"/>
                </mxCell>
                <mxCell id="27" value="Price" style="text;strokeColor=#666666;fillColor=#f5f5f5;align=left;verticalAlign=top;spacingLeft=4;spacingRight=4;overflow=hidden;rotatable=0;points=[[0,0.5],[1,0.5]];portConstraint=eastwest;whiteSpace=wrap;html=1;fontColor=#333333;" parent="17" vertex="1">
                    <mxGeometry y="118" width="160" height="26" as="geometry"/>
                </mxCell>
                <mxCell id="22" value="Food" style="swimlane;fontStyle=0;childLayout=stackLayout;horizontal=1;startSize=40;fillColor=#d80073;horizontalStack=0;resizeParent=1;resizeParentMax=0;resizeLast=0;collapsible=1;marginBottom=0;html=1;strokeColor=#A50040;fontColor=#ffffff;" parent="1" vertex="1">
                    <mxGeometry x="320" y="496" width="160" height="222" as="geometry">
                        <mxRectangle x="240" y="80" width="120" height="40" as="alternateBounds"/>
                    </mxGeometry>
                </mxCell>
                <mxCell id="23" value="id" style="text;strokeColor=#666666;fillColor=#f5f5f5;align=left;verticalAlign=top;spacingLeft=4;spacingRight=4;overflow=hidden;rotatable=0;points=[[0,0.5],[1,0.5]];portConstraint=eastwest;whiteSpace=wrap;html=1;fontColor=#333333;" parent="22" vertex="1">
                    <mxGeometry y="40" width="160" height="26" as="geometry"/>
                </mxCell>
                <mxCell id="24" value="Eng_Name" style="text;strokeColor=#666666;fillColor=#f5f5f5;align=left;verticalAlign=top;spacingLeft=4;spacingRight=4;overflow=hidden;rotatable=0;points=[[0,0.5],[1,0.5]];portConstraint=eastwest;whiteSpace=wrap;html=1;fontColor=#333333;" parent="22" vertex="1">
                    <mxGeometry y="66" width="160" height="26" as="geometry"/>
                </mxCell>
                <mxCell id="25" value="Chinese_Name" style="text;strokeColor=#666666;fillColor=#f5f5f5;align=left;verticalAlign=top;spacingLeft=4;spacingRight=4;overflow=hidden;rotatable=0;points=[[0,0.5],[1,0.5]];portConstraint=eastwest;whiteSpace=wrap;html=1;fontColor=#333333;" parent="22" vertex="1">
                    <mxGeometry y="92" width="160" height="26" as="geometry"/>
                </mxCell>
                <mxCell id="26" value="Price" style="text;strokeColor=#666666;fillColor=#f5f5f5;align=left;verticalAlign=top;spacingLeft=4;spacingRight=4;overflow=hidden;rotatable=0;points=[[0,0.5],[1,0.5]];portConstraint=eastwest;whiteSpace=wrap;html=1;fontColor=#333333;" parent="22" vertex="1">
                    <mxGeometry y="118" width="160" height="26" as="geometry"/>
                </mxCell>
                <mxCell id="39" value="Description" style="text;strokeColor=#666666;fillColor=#f5f5f5;align=left;verticalAlign=top;spacingLeft=4;spacingRight=4;overflow=hidden;rotatable=0;points=[[0,0.5],[1,0.5]];portConstraint=eastwest;whiteSpace=wrap;html=1;fontColor=#333333;" parent="22" vertex="1">
                    <mxGeometry y="144" width="160" height="26" as="geometry"/>
                </mxCell>
                <mxCell id="65" value="ave_point" style="text;strokeColor=#666666;fillColor=#f5f5f5;align=left;verticalAlign=top;spacingLeft=4;spacingRight=4;overflow=hidden;rotatable=0;points=[[0,0.5],[1,0.5]];portConstraint=eastwest;whiteSpace=wrap;html=1;fontColor=#333333;" parent="22" vertex="1">
                    <mxGeometry y="170" width="160" height="26" as="geometry"/>
                </mxCell>
                <mxCell id="37" value="Type" style="text;strokeColor=#A50040;fillColor=#d80073;align=left;verticalAlign=top;spacingLeft=4;spacingRight=4;overflow=hidden;rotatable=0;points=[[0,0.5],[1,0.5]];portConstraint=eastwest;whiteSpace=wrap;html=1;fontColor=#ffffff;" parent="22" vertex="1">
                    <mxGeometry y="196" width="160" height="26" as="geometry"/>
                </mxCell>
                <mxCell id="28" style="edgeStyle=orthogonalEdgeStyle;html=1;entryX=0;entryY=0.5;entryDx=0;entryDy=0;endArrow=none;endFill=0;startArrow=ERmany;startFill=0;" parent="1" source="9" target="6" edge="1">
                    <mxGeometry relative="1" as="geometry">
                        <Array as="points">
                            <mxPoint x="290" y="379"/>
                            <mxPoint x="560" y="380"/>
                        </Array>
                    </mxGeometry>
                </mxCell>
                <mxCell id="29" style="edgeStyle=orthogonalEdgeStyle;html=1;entryX=0;entryY=0.5;entryDx=0;entryDy=0;startArrow=ERmany;startFill=0;endArrow=none;endFill=0;" parent="1" source="10" target="13" edge="1">
                    <mxGeometry relative="1" as="geometry"/>
                </mxCell>
                <mxCell id="30" style="edgeStyle=orthogonalEdgeStyle;html=1;entryX=0;entryY=0.5;entryDx=0;entryDy=0;startArrow=ERmany;startFill=0;endArrow=ERmany;endFill=0;" parent="1" source="11" target="18" edge="1">
                    <mxGeometry relative="1" as="geometry">
                        <Array as="points">
                            <mxPoint x="40" y="431"/>
                            <mxPoint x="40" y="745"/>
                        </Array>
                    </mxGeometry>
                </mxCell>
                <mxCell id="31" style="edgeStyle=orthogonalEdgeStyle;html=1;entryX=1;entryY=0.5;entryDx=0;entryDy=0;startArrow=none;startFill=0;endArrow=ERmany;endFill=0;" parent="1" source="23" target="19" edge="1">
                    <mxGeometry relative="1" as="geometry"/>
                </mxCell>
                <mxCell id="32" value="Type" style="swimlane;fontStyle=0;childLayout=stackLayout;horizontal=1;startSize=40;fillColor=#d80073;horizontalStack=0;resizeParent=1;resizeParentMax=0;resizeLast=0;collapsible=1;marginBottom=0;html=1;strokeColor=#A50040;fontColor=#ffffff;" parent="1" vertex="1">
                    <mxGeometry x="320" y="780" width="160" height="118" as="geometry">
                        <mxRectangle x="240" y="80" width="120" height="40" as="alternateBounds"/>
                    </mxGeometry>
                </mxCell>
                <mxCell id="33" value="id" style="text;strokeColor=#666666;fillColor=#f5f5f5;align=left;verticalAlign=top;spacingLeft=4;spacingRight=4;overflow=hidden;rotatable=0;points=[[0,0.5],[1,0.5]];portConstraint=eastwest;whiteSpace=wrap;html=1;fontColor=#333333;" parent="32" vertex="1">
                    <mxGeometry y="40" width="160" height="26" as="geometry"/>
                </mxCell>
                <mxCell id="34" value="Eng_Name" style="text;strokeColor=#666666;fillColor=#f5f5f5;align=left;verticalAlign=top;spacingLeft=4;spacingRight=4;overflow=hidden;rotatable=0;points=[[0,0.5],[1,0.5]];portConstraint=eastwest;whiteSpace=wrap;html=1;fontColor=#333333;" parent="32" vertex="1">
                    <mxGeometry y="66" width="160" height="26" as="geometry"/>
                </mxCell>
                <mxCell id="35" value="Chinese_Name" style="text;strokeColor=#666666;fillColor=#f5f5f5;align=left;verticalAlign=top;spacingLeft=4;spacingRight=4;overflow=hidden;rotatable=0;points=[[0,0.5],[1,0.5]];portConstraint=eastwest;whiteSpace=wrap;html=1;fontColor=#333333;" parent="32" vertex="1">
                    <mxGeometry y="92" width="160" height="26" as="geometry"/>
                </mxCell>
                <mxCell id="41" style="edgeStyle=orthogonalEdgeStyle;html=1;startArrow=none;startFill=0;endArrow=ERmany;endFill=0;exitX=1;exitY=0.5;exitDx=0;exitDy=0;entryX=1;entryY=0.5;entryDx=0;entryDy=0;" parent="1" source="33" target="37" edge="1">
                    <mxGeometry relative="1" as="geometry">
                        <mxPoint x="480" y="680" as="targetPoint"/>
                        <Array as="points">
                            <mxPoint x="520" y="833"/>
                            <mxPoint x="520" y="705"/>
                        </Array>
                    </mxGeometry>
                </mxCell>
                <mxCell id="45" value="Comment" style="swimlane;fontStyle=0;childLayout=stackLayout;horizontal=1;startSize=40;fillColor=#6a00ff;horizontalStack=0;resizeParent=1;resizeParentMax=0;resizeLast=0;collapsible=1;marginBottom=0;html=1;strokeColor=#3700CC;fontColor=#ffffff;" parent="1" vertex="1">
                    <mxGeometry x="590" y="490" width="160" height="196" as="geometry">
                        <mxRectangle x="240" y="80" width="120" height="40" as="alternateBounds"/>
                    </mxGeometry>
                </mxCell>
                <mxCell id="46" value="id" style="text;strokeColor=#666666;fillColor=#f5f5f5;align=left;verticalAlign=top;spacingLeft=4;spacingRight=4;overflow=hidden;rotatable=0;points=[[0,0.5],[1,0.5]];portConstraint=eastwest;whiteSpace=wrap;html=1;fontColor=#333333;" parent="45" vertex="1">
                    <mxGeometry y="40" width="160" height="26" as="geometry"/>
                </mxCell>
                <mxCell id="50" value="comment" style="text;strokeColor=#666666;fillColor=#f5f5f5;align=left;verticalAlign=top;spacingLeft=4;spacingRight=4;overflow=hidden;rotatable=0;points=[[0,0.5],[1,0.5]];portConstraint=eastwest;whiteSpace=wrap;html=1;fontColor=#333333;" parent="45" vertex="1">
                    <mxGeometry y="66" width="160" height="26" as="geometry"/>
                </mxCell>
                <mxCell id="64" value="given_point" style="text;strokeColor=#666666;fillColor=#f5f5f5;align=left;verticalAlign=top;spacingLeft=4;spacingRight=4;overflow=hidden;rotatable=0;points=[[0,0.5],[1,0.5]];portConstraint=eastwest;whiteSpace=wrap;html=1;fontColor=#333333;" parent="45" vertex="1">
                    <mxGeometry y="92" width="160" height="26" as="geometry"/>
                </mxCell>
                <mxCell id="53" value="User" style="text;strokeColor=#001DBC;fillColor=#0050ef;align=left;verticalAlign=top;spacingLeft=4;spacingRight=4;overflow=hidden;rotatable=0;points=[[0,0.5],[1,0.5]];portConstraint=eastwest;whiteSpace=wrap;html=1;fontColor=#ffffff;" parent="45" vertex="1">
                    <mxGeometry y="118" width="160" height="26" as="geometry"/>
                </mxCell>
                <mxCell id="66" value="Restaurant" style="text;strokeColor=#005700;fillColor=#008a00;align=left;verticalAlign=top;spacingLeft=4;spacingRight=4;overflow=hidden;rotatable=0;points=[[0,0.5],[1,0.5]];portConstraint=eastwest;whiteSpace=wrap;html=1;fontColor=#ffffff;" parent="45" vertex="1">
                    <mxGeometry y="144" width="160" height="26" as="geometry"/>
                </mxCell>
                <mxCell id="51" value="Food" style="text;strokeColor=#A50040;fillColor=#d80073;align=left;verticalAlign=top;spacingLeft=4;spacingRight=4;overflow=hidden;rotatable=0;points=[[0,0.5],[1,0.5]];portConstraint=eastwest;whiteSpace=wrap;html=1;fontColor=#ffffff;" parent="45" vertex="1">
                    <mxGeometry y="170" width="160" height="26" as="geometry"/>
                </mxCell>
                <mxCell id="52" style="edgeStyle=orthogonalEdgeStyle;html=1;entryX=1;entryY=0.5;entryDx=0;entryDy=0;startArrow=ERmany;startFill=0;endArrow=ERmany;endFill=0;" parent="1" source="51" target="23" edge="1">
                    <mxGeometry relative="1" as="geometry"/>
                </mxCell>
                <mxCell id="54" style="edgeStyle=orthogonalEdgeStyle;html=1;entryX=1;entryY=0.5;entryDx=0;entryDy=0;startArrow=ERmany;startFill=0;endArrow=ERmany;endFill=0;" parent="1" source="6" target="53" edge="1">
                    <mxGeometry relative="1" as="geometry">
                        <Array as="points">
                            <mxPoint x="780" y="379"/>
                            <mxPoint x="780" y="621"/>
                        </Array>
                    </mxGeometry>
                </mxCell>
                <mxCell id="56" value="Restaurant" style="swimlane;fontStyle=0;childLayout=stackLayout;horizontal=1;startSize=40;fillColor=#008a00;horizontalStack=0;resizeParent=1;resizeParentMax=0;resizeLast=0;collapsible=1;marginBottom=0;html=1;strokeColor=#005700;fontColor=#ffffff;" parent="1" vertex="1">
                    <mxGeometry x="520" y="80" width="160" height="118" as="geometry">
                        <mxRectangle x="240" y="80" width="120" height="40" as="alternateBounds"/>
                    </mxGeometry>
                </mxCell>
                <mxCell id="57" value="id" style="text;strokeColor=#666666;fillColor=#f5f5f5;align=left;verticalAlign=top;spacingLeft=4;spacingRight=4;overflow=hidden;rotatable=0;points=[[0,0.5],[1,0.5]];portConstraint=eastwest;whiteSpace=wrap;html=1;fontColor=#333333;" parent="56" vertex="1">
                    <mxGeometry y="40" width="160" height="26" as="geometry"/>
                </mxCell>
                <mxCell id="58" value="name" style="text;strokeColor=#666666;fillColor=#f5f5f5;align=left;verticalAlign=top;spacingLeft=4;spacingRight=4;overflow=hidden;rotatable=0;points=[[0,0.5],[1,0.5]];portConstraint=eastwest;whiteSpace=wrap;html=1;fontColor=#333333;" parent="56" vertex="1">
                    <mxGeometry y="66" width="160" height="26" as="geometry"/>
                </mxCell>
                <mxCell id="59" value="location" style="text;strokeColor=#666666;fillColor=#f5f5f5;align=left;verticalAlign=top;spacingLeft=4;spacingRight=4;overflow=hidden;rotatable=0;points=[[0,0.5],[1,0.5]];portConstraint=eastwest;whiteSpace=wrap;html=1;fontColor=#333333;" parent="56" vertex="1">
                    <mxGeometry y="92" width="160" height="26" as="geometry"/>
                </mxCell>
                <mxCell id="61" style="edgeStyle=orthogonalEdgeStyle;html=1;entryX=0;entryY=0.5;entryDx=0;entryDy=0;startArrow=ERmany;startFill=0;endArrow=none;endFill=0;" parent="1" source="60" target="57" edge="1">
                    <mxGeometry relative="1" as="geometry">
                        <Array as="points">
                            <mxPoint x="480" y="185"/>
                            <mxPoint x="480" y="133"/>
                        </Array>
                    </mxGeometry>
                </mxCell>
                <mxCell id="67" style="edgeStyle=orthogonalEdgeStyle;html=1;entryX=1;entryY=0.5;entryDx=0;entryDy=0;startArrow=ERmany;startFill=0;endArrow=none;endFill=0;" parent="1" source="66" target="56" edge="1">
                    <mxGeometry relative="1" as="geometry">
                        <Array as="points">
                            <mxPoint x="800" y="647"/>
                            <mxPoint x="800" y="139"/>
                        </Array>
                    </mxGeometry>
                </mxCell>
                <mxCell id="70" value="Unavailable" style="swimlane;fontStyle=0;childLayout=stackLayout;horizontal=1;startSize=40;fillColor=#008a00;horizontalStack=0;resizeParent=1;resizeParentMax=0;resizeLast=0;collapsible=1;marginBottom=0;html=1;strokeColor=#005700;fontColor=#ffffff;" parent="1" vertex="1">
                    <mxGeometry x="320" y="240" width="160" height="118" as="geometry">
                        <mxRectangle x="240" y="80" width="120" height="40" as="alternateBounds"/>
                    </mxGeometry>
                </mxCell>
                <mxCell id="71" value="id" style="text;strokeColor=#666666;fillColor=#f5f5f5;align=left;verticalAlign=top;spacingLeft=4;spacingRight=4;overflow=hidden;rotatable=0;points=[[0,0.5],[1,0.5]];portConstraint=eastwest;whiteSpace=wrap;html=1;fontColor=#333333;" parent="70" vertex="1">
                    <mxGeometry y="40" width="160" height="26" as="geometry"/>
                </mxCell>
                <mxCell id="73" value="Restaurant" style="text;strokeColor=#005700;fillColor=#008a00;align=left;verticalAlign=top;spacingLeft=4;spacingRight=4;overflow=hidden;rotatable=0;points=[[0,0.5],[1,0.5]];portConstraint=eastwest;whiteSpace=wrap;html=1;fontColor=#ffffff;" parent="70" vertex="1">
                    <mxGeometry y="66" width="160" height="26" as="geometry"/>
                </mxCell>
                <mxCell id="72" value="Food" style="text;strokeColor=#A50040;fillColor=#d80073;align=left;verticalAlign=top;spacingLeft=4;spacingRight=4;overflow=hidden;rotatable=0;points=[[0,0.5],[1,0.5]];portConstraint=eastwest;whiteSpace=wrap;html=1;fontColor=#ffffff;" parent="70" vertex="1">
                    <mxGeometry y="92" width="160" height="26" as="geometry"/>
                </mxCell>
                <mxCell id="74" style="edgeStyle=orthogonalEdgeStyle;html=1;entryX=0;entryY=0.5;entryDx=0;entryDy=0;startArrow=ERmany;startFill=0;endArrow=ERmany;endFill=0;" parent="1" target="23" edge="1">
                    <mxGeometry relative="1" as="geometry">
                        <mxPoint x="320" y="345" as="sourcePoint"/>
                        <Array as="points">
                            <mxPoint x="280" y="345"/>
                            <mxPoint x="280" y="549"/>
                        </Array>
                    </mxGeometry>
                </mxCell>
                <mxCell id="75" style="edgeStyle=orthogonalEdgeStyle;html=1;entryX=0;entryY=0.5;entryDx=0;entryDy=0;startArrow=ERmany;startFill=0;endArrow=ERmany;endFill=0;" parent="1" source="73" target="57" edge="1">
                    <mxGeometry relative="1" as="geometry"/>
                </mxCell>
            </root>
        </mxGraphModel>
    </diagram>
    <diagram id="ISVbtsr2pqmoDEuvZxoq" name="Page-2">
        <mxGraphModel dx="670" dy="576" grid="1" gridSize="10" guides="1" tooltips="1" connect="1" arrows="1" fold="1" page="1" pageScale="1" pageWidth="850" pageHeight="1100" math="0" shadow="0">
            <root>
                <mxCell id="0"/>
                <mxCell id="1" parent="0"/>
                <mxCell id="ZLht7XlxXJss_Qouf3dr-5" value="Restaurant" style="shape=table;startSize=30;container=1;collapsible=0;childLayout=tableLayout;fixedRows=1;rowLines=0;fontStyle=1;fillColor=#008a00;fontColor=#ffffff;strokeColor=#005700;" parent="1" vertex="1">
                    <mxGeometry x="40" y="100" width="440" height="180" as="geometry"/>
                </mxCell>
                <mxCell id="ZLht7XlxXJss_Qouf3dr-6" value="" style="shape=tableRow;horizontal=0;startSize=0;swimlaneHead=0;swimlaneBody=0;top=0;left=0;bottom=0;right=0;collapsible=0;dropTarget=0;fillColor=none;points=[[0,0.5],[1,0.5]];portConstraint=eastwest;" parent="ZLht7XlxXJss_Qouf3dr-5" vertex="1">
                    <mxGeometry y="30" width="440" height="30" as="geometry"/>
                </mxCell>
                <mxCell id="ZLht7XlxXJss_Qouf3dr-7" value="GET" style="shape=partialRectangle;html=1;whiteSpace=wrap;connectable=0;fillColor=#1ba1e2;top=0;left=0;bottom=0;right=0;overflow=hidden;pointerEvents=1;fontColor=#ffffff;strokeColor=#006EAF;" parent="ZLht7XlxXJss_Qouf3dr-6" vertex="1">
                    <mxGeometry width="55" height="30" as="geometry">
                        <mxRectangle width="55" height="30" as="alternateBounds"/>
                    </mxGeometry>
                </mxCell>
                <mxCell id="ZLht7XlxXJss_Qouf3dr-8" value="api/restaurant" style="shape=partialRectangle;html=1;whiteSpace=wrap;connectable=0;fillColor=#f9f7ed;top=0;left=0;bottom=0;right=0;align=left;spacingLeft=6;overflow=hidden;strokeColor=#36393d;fontColor=#000000;" parent="ZLht7XlxXJss_Qouf3dr-6" vertex="1">
                    <mxGeometry x="55" width="145" height="30" as="geometry">
                        <mxRectangle width="145" height="30" as="alternateBounds"/>
                    </mxGeometry>
                </mxCell>
                <mxCell id="ZLht7XlxXJss_Qouf3dr-15" value="list all restaurant" style="shape=partialRectangle;html=1;whiteSpace=wrap;connectable=0;fillColor=#f9f7ed;top=0;left=0;bottom=0;right=0;align=left;spacingLeft=6;overflow=hidden;strokeColor=#36393d;fontColor=#000000;" parent="ZLht7XlxXJss_Qouf3dr-6" vertex="1">
                    <mxGeometry x="200" width="240" height="30" as="geometry">
                        <mxRectangle width="240" height="30" as="alternateBounds"/>
                    </mxGeometry>
                </mxCell>
                <mxCell id="ZLht7XlxXJss_Qouf3dr-9" value="" style="shape=tableRow;horizontal=0;startSize=0;swimlaneHead=0;swimlaneBody=0;top=0;left=0;bottom=0;right=0;collapsible=0;dropTarget=0;fillColor=none;points=[[0,0.5],[1,0.5]];portConstraint=eastwest;" parent="ZLht7XlxXJss_Qouf3dr-5" vertex="1">
                    <mxGeometry y="60" width="440" height="30" as="geometry"/>
                </mxCell>
                <mxCell id="ZLht7XlxXJss_Qouf3dr-10" value="POST" style="shape=partialRectangle;html=1;whiteSpace=wrap;connectable=0;fillColor=#1ba1e2;top=0;left=0;bottom=0;right=0;overflow=hidden;fontColor=#ffffff;strokeColor=#006EAF;" parent="ZLht7XlxXJss_Qouf3dr-9" vertex="1">
                    <mxGeometry width="55" height="30" as="geometry">
                        <mxRectangle width="55" height="30" as="alternateBounds"/>
                    </mxGeometry>
                </mxCell>
                <mxCell id="ZLht7XlxXJss_Qouf3dr-11" value="api/restaurant" style="shape=partialRectangle;html=1;whiteSpace=wrap;connectable=0;fillColor=#f9f7ed;top=0;left=0;bottom=0;right=0;align=left;spacingLeft=6;overflow=hidden;strokeColor=#36393d;fontColor=#000000;" parent="ZLht7XlxXJss_Qouf3dr-9" vertex="1">
                    <mxGeometry x="55" width="145" height="30" as="geometry">
                        <mxRectangle width="145" height="30" as="alternateBounds"/>
                    </mxGeometry>
                </mxCell>
                <mxCell id="ZLht7XlxXJss_Qouf3dr-16" value="create new restaurant, superuser only" style="shape=partialRectangle;html=1;whiteSpace=wrap;connectable=0;fillColor=#f9f7ed;top=0;left=0;bottom=0;right=0;align=left;spacingLeft=6;overflow=hidden;strokeColor=#36393d;fontColor=#000000;" parent="ZLht7XlxXJss_Qouf3dr-9" vertex="1">
                    <mxGeometry x="200" width="240" height="30" as="geometry">
                        <mxRectangle width="240" height="30" as="alternateBounds"/>
                    </mxGeometry>
                </mxCell>
                <mxCell id="ZLht7XlxXJss_Qouf3dr-12" value="" style="shape=tableRow;horizontal=0;startSize=0;swimlaneHead=0;swimlaneBody=0;top=0;left=0;bottom=0;right=0;collapsible=0;dropTarget=0;fillColor=none;points=[[0,0.5],[1,0.5]];portConstraint=eastwest;" parent="ZLht7XlxXJss_Qouf3dr-5" vertex="1">
                    <mxGeometry y="90" width="440" height="30" as="geometry"/>
                </mxCell>
                <mxCell id="ZLht7XlxXJss_Qouf3dr-13" value="GET" style="shape=partialRectangle;html=1;whiteSpace=wrap;connectable=0;fillColor=#1ba1e2;top=0;left=0;bottom=0;right=0;overflow=hidden;fontColor=#ffffff;strokeColor=#006EAF;" parent="ZLht7XlxXJss_Qouf3dr-12" vertex="1">
                    <mxGeometry width="55" height="30" as="geometry">
                        <mxRectangle width="55" height="30" as="alternateBounds"/>
                    </mxGeometry>
                </mxCell>
                <mxCell id="ZLht7XlxXJss_Qouf3dr-14" value="api/restaurant/&amp;lt;int:pk&amp;gt;" style="shape=partialRectangle;html=1;whiteSpace=wrap;connectable=0;fillColor=#f9f7ed;top=0;left=0;bottom=0;right=0;align=left;spacingLeft=6;overflow=hidden;strokeColor=#36393d;fontColor=#000000;" parent="ZLht7XlxXJss_Qouf3dr-12" vertex="1">
                    <mxGeometry x="55" width="145" height="30" as="geometry">
                        <mxRectangle width="145" height="30" as="alternateBounds"/>
                    </mxGeometry>
                </mxCell>
                <mxCell id="ZLht7XlxXJss_Qouf3dr-17" value="get a restaurant with id" style="shape=partialRectangle;html=1;whiteSpace=wrap;connectable=0;fillColor=#f9f7ed;top=0;left=0;bottom=0;right=0;align=left;spacingLeft=6;overflow=hidden;strokeColor=#36393d;fontColor=#000000;" parent="ZLht7XlxXJss_Qouf3dr-12" vertex="1">
                    <mxGeometry x="200" width="240" height="30" as="geometry">
                        <mxRectangle width="240" height="30" as="alternateBounds"/>
                    </mxGeometry>
                </mxCell>
                <mxCell id="ZLht7XlxXJss_Qouf3dr-18" style="shape=tableRow;horizontal=0;startSize=0;swimlaneHead=0;swimlaneBody=0;top=0;left=0;bottom=0;right=0;collapsible=0;dropTarget=0;fillColor=none;points=[[0,0.5],[1,0.5]];portConstraint=eastwest;" parent="ZLht7XlxXJss_Qouf3dr-5" vertex="1">
                    <mxGeometry y="120" width="440" height="30" as="geometry"/>
                </mxCell>
                <mxCell id="ZLht7XlxXJss_Qouf3dr-19" value="PUT" style="shape=partialRectangle;html=1;whiteSpace=wrap;connectable=0;fillColor=#1ba1e2;top=0;left=0;bottom=0;right=0;overflow=hidden;fontColor=#ffffff;strokeColor=#006EAF;" parent="ZLht7XlxXJss_Qouf3dr-18" vertex="1">
                    <mxGeometry width="55" height="30" as="geometry">
                        <mxRectangle width="55" height="30" as="alternateBounds"/>
                    </mxGeometry>
                </mxCell>
                <mxCell id="ZLht7XlxXJss_Qouf3dr-20" value="api/restaurant/&amp;lt;int:pk&amp;gt;" style="shape=partialRectangle;html=1;whiteSpace=wrap;connectable=0;fillColor=#f9f7ed;top=0;left=0;bottom=0;right=0;align=left;spacingLeft=6;overflow=hidden;strokeColor=#36393d;fontColor=#000000;" parent="ZLht7XlxXJss_Qouf3dr-18" vertex="1">
                    <mxGeometry x="55" width="145" height="30" as="geometry">
                        <mxRectangle width="145" height="30" as="alternateBounds"/>
                    </mxGeometry>
                </mxCell>
                <mxCell id="ZLht7XlxXJss_Qouf3dr-21" value="update the information of restaurant with id, superuser only" style="shape=partialRectangle;html=1;whiteSpace=wrap;connectable=0;fillColor=#f9f7ed;top=0;left=0;bottom=0;right=0;align=left;spacingLeft=6;overflow=hidden;strokeColor=#36393d;fontColor=#000000;" parent="ZLht7XlxXJss_Qouf3dr-18" vertex="1">
                    <mxGeometry x="200" width="240" height="30" as="geometry">
                        <mxRectangle width="240" height="30" as="alternateBounds"/>
                    </mxGeometry>
                </mxCell>
                <mxCell id="ZLht7XlxXJss_Qouf3dr-22" style="shape=tableRow;horizontal=0;startSize=0;swimlaneHead=0;swimlaneBody=0;top=0;left=0;bottom=0;right=0;collapsible=0;dropTarget=0;fillColor=none;points=[[0,0.5],[1,0.5]];portConstraint=eastwest;" parent="ZLht7XlxXJss_Qouf3dr-5" vertex="1">
                    <mxGeometry y="150" width="440" height="30" as="geometry"/>
                </mxCell>
                <mxCell id="ZLht7XlxXJss_Qouf3dr-23" value="DELETE" style="shape=partialRectangle;html=1;whiteSpace=wrap;connectable=0;fillColor=#1ba1e2;top=0;left=0;bottom=0;right=0;overflow=hidden;fontColor=#ffffff;strokeColor=#006EAF;" parent="ZLht7XlxXJss_Qouf3dr-22" vertex="1">
                    <mxGeometry width="55" height="30" as="geometry">
                        <mxRectangle width="55" height="30" as="alternateBounds"/>
                    </mxGeometry>
                </mxCell>
                <mxCell id="ZLht7XlxXJss_Qouf3dr-24" value="api/restaurant/&amp;lt;int:pk&amp;gt;" style="shape=partialRectangle;html=1;whiteSpace=wrap;connectable=0;fillColor=#f9f7ed;top=0;left=0;bottom=0;right=0;align=left;spacingLeft=6;overflow=hidden;strokeColor=#36393d;fontColor=#000000;" parent="ZLht7XlxXJss_Qouf3dr-22" vertex="1">
                    <mxGeometry x="55" width="145" height="30" as="geometry">
                        <mxRectangle width="145" height="30" as="alternateBounds"/>
                    </mxGeometry>
                </mxCell>
                <mxCell id="ZLht7XlxXJss_Qouf3dr-25" value="delete a restaurant with id, superuser only" style="shape=partialRectangle;html=1;whiteSpace=wrap;connectable=0;fillColor=#f9f7ed;top=0;left=0;bottom=0;right=0;align=left;spacingLeft=6;overflow=hidden;strokeColor=#36393d;fontColor=#000000;" parent="ZLht7XlxXJss_Qouf3dr-22" vertex="1">
                    <mxGeometry x="200" width="240" height="30" as="geometry">
                        <mxRectangle width="240" height="30" as="alternateBounds"/>
                    </mxGeometry>
                </mxCell>
                <mxCell id="ZLht7XlxXJss_Qouf3dr-35" value="Filter" style="shape=table;startSize=30;container=1;collapsible=0;childLayout=tableLayout;fixedRows=1;rowLines=0;fontStyle=1;fillColor=#f0a30a;fontColor=#000000;strokeColor=#BD7000;" parent="1" vertex="1">
                    <mxGeometry x="520" y="40" width="440" height="90" as="geometry"/>
                </mxCell>
                <mxCell id="ZLht7XlxXJss_Qouf3dr-36" value="" style="shape=tableRow;horizontal=0;startSize=0;swimlaneHead=0;swimlaneBody=0;top=0;left=0;bottom=0;right=0;collapsible=0;dropTarget=0;fillColor=none;points=[[0,0.5],[1,0.5]];portConstraint=eastwest;" parent="ZLht7XlxXJss_Qouf3dr-35" vertex="1">
                    <mxGeometry y="30" width="440" height="30" as="geometry"/>
                </mxCell>
                <mxCell id="ZLht7XlxXJss_Qouf3dr-37" value="name" style="shape=partialRectangle;html=1;whiteSpace=wrap;connectable=0;fillColor=#1ba1e2;top=0;left=0;bottom=0;right=0;overflow=hidden;pointerEvents=1;fontColor=#ffffff;strokeColor=#006EAF;" parent="ZLht7XlxXJss_Qouf3dr-36" vertex="1">
                    <mxGeometry width="80" height="30" as="geometry">
                        <mxRectangle width="80" height="30" as="alternateBounds"/>
                    </mxGeometry>
                </mxCell>
                <mxCell id="ZLht7XlxXJss_Qouf3dr-38" value="restaurant with its name contain name" style="shape=partialRectangle;html=1;whiteSpace=wrap;connectable=0;fillColor=#f9f7ed;top=0;left=0;bottom=0;right=0;align=left;spacingLeft=6;overflow=hidden;strokeColor=#36393d;fontColor=#000000;" parent="ZLht7XlxXJss_Qouf3dr-36" vertex="1">
                    <mxGeometry x="80" width="320" height="30" as="geometry">
                        <mxRectangle width="320" height="30" as="alternateBounds"/>
                    </mxGeometry>
                </mxCell>
                <mxCell id="ZLht7XlxXJss_Qouf3dr-117" value="Str" style="shape=partialRectangle;html=1;whiteSpace=wrap;connectable=0;fillColor=#6d8764;top=0;left=0;bottom=0;right=0;align=left;spacingLeft=6;overflow=hidden;strokeColor=default;strokeWidth=1;fontColor=#ffffff;" parent="ZLht7XlxXJss_Qouf3dr-36" vertex="1">
                    <mxGeometry x="400" width="40" height="30" as="geometry">
                        <mxRectangle width="40" height="30" as="alternateBounds"/>
                    </mxGeometry>
                </mxCell>
                <mxCell id="ZLht7XlxXJss_Qouf3dr-40" value="" style="shape=tableRow;horizontal=0;startSize=0;swimlaneHead=0;swimlaneBody=0;top=0;left=0;bottom=0;right=0;collapsible=0;dropTarget=0;fillColor=none;points=[[0,0.5],[1,0.5]];portConstraint=eastwest;" parent="ZLht7XlxXJss_Qouf3dr-35" vertex="1">
                    <mxGeometry y="60" width="440" height="30" as="geometry"/>
                </mxCell>
                <mxCell id="ZLht7XlxXJss_Qouf3dr-41" value="location" style="shape=partialRectangle;html=1;whiteSpace=wrap;connectable=0;fillColor=#1ba1e2;top=0;left=0;bottom=0;right=0;overflow=hidden;fontColor=#ffffff;strokeColor=#006EAF;" parent="ZLht7XlxXJss_Qouf3dr-40" vertex="1">
                    <mxGeometry width="80" height="30" as="geometry">
                        <mxRectangle width="80" height="30" as="alternateBounds"/>
                    </mxGeometry>
                </mxCell>
                <mxCell id="ZLht7XlxXJss_Qouf3dr-42" value="restaurant with its location contain location" style="shape=partialRectangle;html=1;whiteSpace=wrap;connectable=0;fillColor=#f9f7ed;top=0;left=0;bottom=0;right=0;align=left;spacingLeft=6;overflow=hidden;strokeColor=#36393d;fontColor=#000000;" parent="ZLht7XlxXJss_Qouf3dr-40" vertex="1">
                    <mxGeometry x="80" width="320" height="30" as="geometry">
                        <mxRectangle width="320" height="30" as="alternateBounds"/>
                    </mxGeometry>
                </mxCell>
                <mxCell id="ZLht7XlxXJss_Qouf3dr-118" value="Str" style="shape=partialRectangle;html=1;whiteSpace=wrap;connectable=0;fillColor=#6d8764;top=0;left=0;bottom=0;right=0;align=left;spacingLeft=6;overflow=hidden;strokeColor=#3A5431;fontColor=#ffffff;" parent="ZLht7XlxXJss_Qouf3dr-40" vertex="1">
                    <mxGeometry x="400" width="40" height="30" as="geometry">
                        <mxRectangle width="40" height="30" as="alternateBounds"/>
                    </mxGeometry>
                </mxCell>
                <mxCell id="ZLht7XlxXJss_Qouf3dr-57" value="Table" style="shape=table;startSize=30;container=1;collapsible=0;childLayout=tableLayout;fixedRows=1;rowLines=0;fontStyle=1;fillColor=#008a00;fontColor=#ffffff;strokeColor=#005700;" parent="1" vertex="1">
                    <mxGeometry x="40" y="520" width="440" height="180" as="geometry"/>
                </mxCell>
                <mxCell id="ZLht7XlxXJss_Qouf3dr-58" value="" style="shape=tableRow;horizontal=0;startSize=0;swimlaneHead=0;swimlaneBody=0;top=0;left=0;bottom=0;right=0;collapsible=0;dropTarget=0;fillColor=none;points=[[0,0.5],[1,0.5]];portConstraint=eastwest;" parent="ZLht7XlxXJss_Qouf3dr-57" vertex="1">
                    <mxGeometry y="30" width="440" height="30" as="geometry"/>
                </mxCell>
                <mxCell id="ZLht7XlxXJss_Qouf3dr-59" value="GET" style="shape=partialRectangle;html=1;whiteSpace=wrap;connectable=0;fillColor=#1ba1e2;top=0;left=0;bottom=0;right=0;overflow=hidden;pointerEvents=1;fontColor=#ffffff;strokeColor=#006EAF;" parent="ZLht7XlxXJss_Qouf3dr-58" vertex="1">
                    <mxGeometry width="55" height="30" as="geometry">
                        <mxRectangle width="55" height="30" as="alternateBounds"/>
                    </mxGeometry>
                </mxCell>
                <mxCell id="ZLht7XlxXJss_Qouf3dr-60" value="api/table" style="shape=partialRectangle;html=1;whiteSpace=wrap;connectable=0;fillColor=#f9f7ed;top=0;left=0;bottom=0;right=0;align=left;spacingLeft=6;overflow=hidden;strokeColor=#36393d;fontColor=#000000;" parent="ZLht7XlxXJss_Qouf3dr-58" vertex="1">
                    <mxGeometry x="55" width="145" height="30" as="geometry">
                        <mxRectangle width="145" height="30" as="alternateBounds"/>
                    </mxGeometry>
                </mxCell>
                <mxCell id="ZLht7XlxXJss_Qouf3dr-61" value="list all table with its restaurant" style="shape=partialRectangle;html=1;whiteSpace=wrap;connectable=0;fillColor=#f9f7ed;top=0;left=0;bottom=0;right=0;align=left;spacingLeft=6;overflow=hidden;strokeColor=#36393d;fontColor=#000000;" parent="ZLht7XlxXJss_Qouf3dr-58" vertex="1">
                    <mxGeometry x="200" width="240" height="30" as="geometry">
                        <mxRectangle width="240" height="30" as="alternateBounds"/>
                    </mxGeometry>
                </mxCell>
                <mxCell id="ZLht7XlxXJss_Qouf3dr-62" value="" style="shape=tableRow;horizontal=0;startSize=0;swimlaneHead=0;swimlaneBody=0;top=0;left=0;bottom=0;right=0;collapsible=0;dropTarget=0;fillColor=none;points=[[0,0.5],[1,0.5]];portConstraint=eastwest;" parent="ZLht7XlxXJss_Qouf3dr-57" vertex="1">
                    <mxGeometry y="60" width="440" height="30" as="geometry"/>
                </mxCell>
                <mxCell id="ZLht7XlxXJss_Qouf3dr-63" value="POST" style="shape=partialRectangle;html=1;whiteSpace=wrap;connectable=0;fillColor=#1ba1e2;top=0;left=0;bottom=0;right=0;overflow=hidden;fontColor=#ffffff;strokeColor=#006EAF;" parent="ZLht7XlxXJss_Qouf3dr-62" vertex="1">
                    <mxGeometry width="55" height="30" as="geometry">
                        <mxRectangle width="55" height="30" as="alternateBounds"/>
                    </mxGeometry>
                </mxCell>
                <mxCell id="ZLht7XlxXJss_Qouf3dr-64" value="api/table" style="shape=partialRectangle;html=1;whiteSpace=wrap;connectable=0;fillColor=#f9f7ed;top=0;left=0;bottom=0;right=0;align=left;spacingLeft=6;overflow=hidden;strokeColor=#36393d;fontColor=#000000;" parent="ZLht7XlxXJss_Qouf3dr-62" vertex="1">
                    <mxGeometry x="55" width="145" height="30" as="geometry">
                        <mxRectangle width="145" height="30" as="alternateBounds"/>
                    </mxGeometry>
                </mxCell>
                <mxCell id="ZLht7XlxXJss_Qouf3dr-65" value="create new table, superuser only" style="shape=partialRectangle;html=1;whiteSpace=wrap;connectable=0;fillColor=#f9f7ed;top=0;left=0;bottom=0;right=0;align=left;spacingLeft=6;overflow=hidden;strokeColor=#36393d;fontColor=#000000;" parent="ZLht7XlxXJss_Qouf3dr-62" vertex="1">
                    <mxGeometry x="200" width="240" height="30" as="geometry">
                        <mxRectangle width="240" height="30" as="alternateBounds"/>
                    </mxGeometry>
                </mxCell>
                <mxCell id="ZLht7XlxXJss_Qouf3dr-66" value="" style="shape=tableRow;horizontal=0;startSize=0;swimlaneHead=0;swimlaneBody=0;top=0;left=0;bottom=0;right=0;collapsible=0;dropTarget=0;fillColor=none;points=[[0,0.5],[1,0.5]];portConstraint=eastwest;" parent="ZLht7XlxXJss_Qouf3dr-57" vertex="1">
                    <mxGeometry y="90" width="440" height="30" as="geometry"/>
                </mxCell>
                <mxCell id="ZLht7XlxXJss_Qouf3dr-67" value="GET" style="shape=partialRectangle;html=1;whiteSpace=wrap;connectable=0;fillColor=#1ba1e2;top=0;left=0;bottom=0;right=0;overflow=hidden;fontColor=#ffffff;strokeColor=#006EAF;" parent="ZLht7XlxXJss_Qouf3dr-66" vertex="1">
                    <mxGeometry width="55" height="30" as="geometry">
                        <mxRectangle width="55" height="30" as="alternateBounds"/>
                    </mxGeometry>
                </mxCell>
                <mxCell id="ZLht7XlxXJss_Qouf3dr-68" value="api/table/&amp;lt;int:pk&amp;gt;" style="shape=partialRectangle;html=1;whiteSpace=wrap;connectable=0;fillColor=#f9f7ed;top=0;left=0;bottom=0;right=0;align=left;spacingLeft=6;overflow=hidden;strokeColor=#36393d;fontColor=#000000;" parent="ZLht7XlxXJss_Qouf3dr-66" vertex="1">
                    <mxGeometry x="55" width="145" height="30" as="geometry">
                        <mxRectangle width="145" height="30" as="alternateBounds"/>
                    </mxGeometry>
                </mxCell>
                <mxCell id="ZLht7XlxXJss_Qouf3dr-69" value="get a table with id" style="shape=partialRectangle;html=1;whiteSpace=wrap;connectable=0;fillColor=#f9f7ed;top=0;left=0;bottom=0;right=0;align=left;spacingLeft=6;overflow=hidden;strokeColor=#36393d;fontColor=#000000;" parent="ZLht7XlxXJss_Qouf3dr-66" vertex="1">
                    <mxGeometry x="200" width="240" height="30" as="geometry">
                        <mxRectangle width="240" height="30" as="alternateBounds"/>
                    </mxGeometry>
                </mxCell>
                <mxCell id="ZLht7XlxXJss_Qouf3dr-70" style="shape=tableRow;horizontal=0;startSize=0;swimlaneHead=0;swimlaneBody=0;top=0;left=0;bottom=0;right=0;collapsible=0;dropTarget=0;fillColor=none;points=[[0,0.5],[1,0.5]];portConstraint=eastwest;" parent="ZLht7XlxXJss_Qouf3dr-57" vertex="1">
                    <mxGeometry y="120" width="440" height="30" as="geometry"/>
                </mxCell>
                <mxCell id="ZLht7XlxXJss_Qouf3dr-71" value="PUT" style="shape=partialRectangle;html=1;whiteSpace=wrap;connectable=0;fillColor=#1ba1e2;top=0;left=0;bottom=0;right=0;overflow=hidden;fontColor=#ffffff;strokeColor=#006EAF;" parent="ZLht7XlxXJss_Qouf3dr-70" vertex="1">
                    <mxGeometry width="55" height="30" as="geometry">
                        <mxRectangle width="55" height="30" as="alternateBounds"/>
                    </mxGeometry>
                </mxCell>
                <mxCell id="ZLht7XlxXJss_Qouf3dr-72" value="api/table/&amp;lt;int:pk&amp;gt;" style="shape=partialRectangle;html=1;whiteSpace=wrap;connectable=0;fillColor=#f9f7ed;top=0;left=0;bottom=0;right=0;align=left;spacingLeft=6;overflow=hidden;strokeColor=#36393d;fontColor=#000000;" parent="ZLht7XlxXJss_Qouf3dr-70" vertex="1">
                    <mxGeometry x="55" width="145" height="30" as="geometry">
                        <mxRectangle width="145" height="30" as="alternateBounds"/>
                    </mxGeometry>
                </mxCell>
                <mxCell id="ZLht7XlxXJss_Qouf3dr-73" value="update the information of table with id, superuser only" style="shape=partialRectangle;html=1;whiteSpace=wrap;connectable=0;fillColor=#f9f7ed;top=0;left=0;bottom=0;right=0;align=left;spacingLeft=6;overflow=hidden;strokeColor=#36393d;fontColor=#000000;" parent="ZLht7XlxXJss_Qouf3dr-70" vertex="1">
                    <mxGeometry x="200" width="240" height="30" as="geometry">
                        <mxRectangle width="240" height="30" as="alternateBounds"/>
                    </mxGeometry>
                </mxCell>
                <mxCell id="ZLht7XlxXJss_Qouf3dr-74" style="shape=tableRow;horizontal=0;startSize=0;swimlaneHead=0;swimlaneBody=0;top=0;left=0;bottom=0;right=0;collapsible=0;dropTarget=0;fillColor=none;points=[[0,0.5],[1,0.5]];portConstraint=eastwest;" parent="ZLht7XlxXJss_Qouf3dr-57" vertex="1">
                    <mxGeometry y="150" width="440" height="30" as="geometry"/>
                </mxCell>
                <mxCell id="ZLht7XlxXJss_Qouf3dr-75" value="DELETE" style="shape=partialRectangle;html=1;whiteSpace=wrap;connectable=0;fillColor=#1ba1e2;top=0;left=0;bottom=0;right=0;overflow=hidden;fontColor=#ffffff;strokeColor=#006EAF;" parent="ZLht7XlxXJss_Qouf3dr-74" vertex="1">
                    <mxGeometry width="55" height="30" as="geometry">
                        <mxRectangle width="55" height="30" as="alternateBounds"/>
                    </mxGeometry>
                </mxCell>
                <mxCell id="ZLht7XlxXJss_Qouf3dr-76" value="api/table/&amp;lt;int:pk&amp;gt;" style="shape=partialRectangle;html=1;whiteSpace=wrap;connectable=0;fillColor=#f9f7ed;top=0;left=0;bottom=0;right=0;align=left;spacingLeft=6;overflow=hidden;strokeColor=#36393d;fontColor=#000000;" parent="ZLht7XlxXJss_Qouf3dr-74" vertex="1">
                    <mxGeometry x="55" width="145" height="30" as="geometry">
                        <mxRectangle width="145" height="30" as="alternateBounds"/>
                    </mxGeometry>
                </mxCell>
                <mxCell id="ZLht7XlxXJss_Qouf3dr-77" value="delete a table with id, superuser only" style="shape=partialRectangle;html=1;whiteSpace=wrap;connectable=0;fillColor=#f9f7ed;top=0;left=0;bottom=0;right=0;align=left;spacingLeft=6;overflow=hidden;strokeColor=#36393d;fontColor=#000000;" parent="ZLht7XlxXJss_Qouf3dr-74" vertex="1">
                    <mxGeometry x="200" width="240" height="30" as="geometry">
                        <mxRectangle width="240" height="30" as="alternateBounds"/>
                    </mxGeometry>
                </mxCell>
                <mxCell id="ZLht7XlxXJss_Qouf3dr-78" value="Form" style="shape=table;startSize=30;container=1;collapsible=0;childLayout=tableLayout;fixedRows=1;rowLines=0;fontStyle=1;fillColor=#f0a30a;fontColor=#000000;strokeColor=#BD7000;" parent="1" vertex="1">
                    <mxGeometry x="520" y="240" width="440" height="90" as="geometry"/>
                </mxCell>
                <mxCell id="ZLht7XlxXJss_Qouf3dr-79" value="" style="shape=tableRow;horizontal=0;startSize=0;swimlaneHead=0;swimlaneBody=0;top=0;left=0;bottom=0;right=0;collapsible=0;dropTarget=0;fillColor=none;points=[[0,0.5],[1,0.5]];portConstraint=eastwest;" parent="ZLht7XlxXJss_Qouf3dr-78" vertex="1">
                    <mxGeometry y="30" width="440" height="30" as="geometry"/>
                </mxCell>
                <mxCell id="ZLht7XlxXJss_Qouf3dr-80" value="name" style="shape=partialRectangle;html=1;whiteSpace=wrap;connectable=0;fillColor=#1ba1e2;top=0;left=0;bottom=0;right=0;overflow=hidden;pointerEvents=1;fontColor=#ffffff;strokeColor=#006EAF;" parent="ZLht7XlxXJss_Qouf3dr-79" vertex="1">
                    <mxGeometry width="80" height="30" as="geometry">
                        <mxRectangle width="80" height="30" as="alternateBounds"/>
                    </mxGeometry>
                </mxCell>
                <mxCell id="ZLht7XlxXJss_Qouf3dr-81" value="name of restaurant" style="shape=partialRectangle;html=1;whiteSpace=wrap;connectable=0;fillColor=#f9f7ed;top=0;left=0;bottom=0;right=0;align=left;spacingLeft=6;overflow=hidden;strokeColor=#36393d;fontColor=#000000;" parent="ZLht7XlxXJss_Qouf3dr-79" vertex="1">
                    <mxGeometry x="80" width="320" height="30" as="geometry">
                        <mxRectangle width="320" height="30" as="alternateBounds"/>
                    </mxGeometry>
                </mxCell>
                <mxCell id="ZLht7XlxXJss_Qouf3dr-119" value="Str" style="shape=partialRectangle;html=1;whiteSpace=wrap;connectable=0;fillColor=#6d8764;top=0;left=0;bottom=0;right=0;align=left;spacingLeft=6;overflow=hidden;strokeColor=#3A5431;fontColor=#ffffff;" parent="ZLht7XlxXJss_Qouf3dr-79" vertex="1">
                    <mxGeometry x="400" width="40" height="30" as="geometry">
                        <mxRectangle width="40" height="30" as="alternateBounds"/>
                    </mxGeometry>
                </mxCell>
                <mxCell id="ZLht7XlxXJss_Qouf3dr-82" value="" style="shape=tableRow;horizontal=0;startSize=0;swimlaneHead=0;swimlaneBody=0;top=0;left=0;bottom=0;right=0;collapsible=0;dropTarget=0;fillColor=none;points=[[0,0.5],[1,0.5]];portConstraint=eastwest;" parent="ZLht7XlxXJss_Qouf3dr-78" vertex="1">
                    <mxGeometry y="60" width="440" height="30" as="geometry"/>
                </mxCell>
                <mxCell id="ZLht7XlxXJss_Qouf3dr-83" value="location" style="shape=partialRectangle;html=1;whiteSpace=wrap;connectable=0;fillColor=#1ba1e2;top=0;left=0;bottom=0;right=0;overflow=hidden;fontColor=#ffffff;strokeColor=#006EAF;" parent="ZLht7XlxXJss_Qouf3dr-82" vertex="1">
                    <mxGeometry width="80" height="30" as="geometry">
                        <mxRectangle width="80" height="30" as="alternateBounds"/>
                    </mxGeometry>
                </mxCell>
                <mxCell id="ZLht7XlxXJss_Qouf3dr-84" value="location of restaurant" style="shape=partialRectangle;html=1;whiteSpace=wrap;connectable=0;fillColor=#f9f7ed;top=0;left=0;bottom=0;right=0;align=left;spacingLeft=6;overflow=hidden;strokeColor=#36393d;fontColor=#000000;" parent="ZLht7XlxXJss_Qouf3dr-82" vertex="1">
                    <mxGeometry x="80" width="320" height="30" as="geometry">
                        <mxRectangle width="320" height="30" as="alternateBounds"/>
                    </mxGeometry>
                </mxCell>
                <mxCell id="ZLht7XlxXJss_Qouf3dr-120" value="Str" style="shape=partialRectangle;html=1;whiteSpace=wrap;connectable=0;fillColor=#6d8764;top=0;left=0;bottom=0;right=0;align=left;spacingLeft=6;overflow=hidden;strokeColor=#3A5431;fontColor=#ffffff;" parent="ZLht7XlxXJss_Qouf3dr-82" vertex="1">
                    <mxGeometry x="400" width="40" height="30" as="geometry">
                        <mxRectangle width="40" height="30" as="alternateBounds"/>
                    </mxGeometry>
                </mxCell>
                <mxCell id="ZLht7XlxXJss_Qouf3dr-88" style="edgeStyle=orthogonalEdgeStyle;html=1;strokeColor=#CC0000;strokeWidth=5;fontColor=#000000;" parent="1" source="ZLht7XlxXJss_Qouf3dr-9" target="ZLht7XlxXJss_Qouf3dr-78" edge="1">
                    <mxGeometry relative="1" as="geometry"/>
                </mxCell>
                <mxCell id="ZLht7XlxXJss_Qouf3dr-89" style="edgeStyle=orthogonalEdgeStyle;html=1;entryX=0.5;entryY=0;entryDx=0;entryDy=0;strokeColor=#CC0000;strokeWidth=5;fontColor=#000000;" parent="1" source="ZLht7XlxXJss_Qouf3dr-18" target="ZLht7XlxXJss_Qouf3dr-78" edge="1">
                    <mxGeometry relative="1" as="geometry">
                        <Array as="points">
                            <mxPoint x="500" y="235"/>
                            <mxPoint x="500" y="180"/>
                            <mxPoint x="740" y="180"/>
                        </Array>
                    </mxGeometry>
                </mxCell>
                <mxCell id="ZLht7XlxXJss_Qouf3dr-91" value="Filter" style="shape=table;startSize=30;container=1;collapsible=0;childLayout=tableLayout;fixedRows=1;rowLines=0;fontStyle=1;fillColor=#f0a30a;fontColor=#000000;strokeColor=#BD7000;" parent="1" vertex="1">
                    <mxGeometry x="520" y="360" width="440" height="150" as="geometry"/>
                </mxCell>
                <mxCell id="ZLht7XlxXJss_Qouf3dr-92" value="" style="shape=tableRow;horizontal=0;startSize=0;swimlaneHead=0;swimlaneBody=0;top=0;left=0;bottom=0;right=0;collapsible=0;dropTarget=0;fillColor=none;points=[[0,0.5],[1,0.5]];portConstraint=eastwest;" parent="ZLht7XlxXJss_Qouf3dr-91" vertex="1">
                    <mxGeometry y="30" width="440" height="30" as="geometry"/>
                </mxCell>
                <mxCell id="ZLht7XlxXJss_Qouf3dr-93" value="max_no" style="shape=partialRectangle;html=1;whiteSpace=wrap;connectable=0;fillColor=#1ba1e2;top=0;left=0;bottom=0;right=0;overflow=hidden;pointerEvents=1;fontColor=#ffffff;strokeColor=#006EAF;" parent="ZLht7XlxXJss_Qouf3dr-92" vertex="1">
                    <mxGeometry width="80" height="30" as="geometry">
                        <mxRectangle width="80" height="30" as="alternateBounds"/>
                    </mxGeometry>
                </mxCell>
                <mxCell id="ZLht7XlxXJss_Qouf3dr-94" value="table with its capacity no less then max_no" style="shape=partialRectangle;html=1;whiteSpace=wrap;connectable=0;fillColor=#f9f7ed;top=0;left=0;bottom=0;right=0;align=left;spacingLeft=6;overflow=hidden;strokeColor=#36393d;fontColor=#000000;" parent="ZLht7XlxXJss_Qouf3dr-92" vertex="1">
                    <mxGeometry x="80" width="320" height="30" as="geometry">
                        <mxRectangle width="320" height="30" as="alternateBounds"/>
                    </mxGeometry>
                </mxCell>
                <mxCell id="ZLht7XlxXJss_Qouf3dr-121" value="Int" style="shape=partialRectangle;html=1;whiteSpace=wrap;connectable=0;fillColor=#6d8764;top=0;left=0;bottom=0;right=0;align=left;spacingLeft=6;overflow=hidden;strokeColor=#3A5431;fontColor=#ffffff;" parent="ZLht7XlxXJss_Qouf3dr-92" vertex="1">
                    <mxGeometry x="400" width="40" height="30" as="geometry">
                        <mxRectangle width="40" height="30" as="alternateBounds"/>
                    </mxGeometry>
                </mxCell>
                <mxCell id="ZLht7XlxXJss_Qouf3dr-95" value="" style="shape=tableRow;horizontal=0;startSize=0;swimlaneHead=0;swimlaneBody=0;top=0;left=0;bottom=0;right=0;collapsible=0;dropTarget=0;fillColor=none;points=[[0,0.5],[1,0.5]];portConstraint=eastwest;" parent="ZLht7XlxXJss_Qouf3dr-91" vertex="1">
                    <mxGeometry y="60" width="440" height="30" as="geometry"/>
                </mxCell>
                <mxCell id="ZLht7XlxXJss_Qouf3dr-96" value="restaurant_id" style="shape=partialRectangle;html=1;whiteSpace=wrap;connectable=0;fillColor=#1ba1e2;top=0;left=0;bottom=0;right=0;overflow=hidden;fontColor=#ffffff;strokeColor=#006EAF;" parent="ZLht7XlxXJss_Qouf3dr-95" vertex="1">
                    <mxGeometry width="80" height="30" as="geometry">
                        <mxRectangle width="80" height="30" as="alternateBounds"/>
                    </mxGeometry>
                </mxCell>
                <mxCell id="ZLht7XlxXJss_Qouf3dr-97" value="table with its restaurant with restaurant_id" style="shape=partialRectangle;html=1;whiteSpace=wrap;connectable=0;fillColor=#f9f7ed;top=0;left=0;bottom=0;right=0;align=left;spacingLeft=6;overflow=hidden;strokeColor=#36393d;fontColor=#000000;" parent="ZLht7XlxXJss_Qouf3dr-95" vertex="1">
                    <mxGeometry x="80" width="320" height="30" as="geometry">
                        <mxRectangle width="320" height="30" as="alternateBounds"/>
                    </mxGeometry>
                </mxCell>
                <mxCell id="ZLht7XlxXJss_Qouf3dr-122" value="Int" style="shape=partialRectangle;html=1;whiteSpace=wrap;connectable=0;fillColor=#6d8764;top=0;left=0;bottom=0;right=0;align=left;spacingLeft=6;overflow=hidden;strokeColor=#3A5431;fontColor=#ffffff;" parent="ZLht7XlxXJss_Qouf3dr-95" vertex="1">
                    <mxGeometry x="400" width="40" height="30" as="geometry">
                        <mxRectangle width="40" height="30" as="alternateBounds"/>
                    </mxGeometry>
                </mxCell>
                <mxCell id="ZLht7XlxXJss_Qouf3dr-111" style="shape=tableRow;horizontal=0;startSize=0;swimlaneHead=0;swimlaneBody=0;top=0;left=0;bottom=0;right=0;collapsible=0;dropTarget=0;fillColor=none;points=[[0,0.5],[1,0.5]];portConstraint=eastwest;" parent="ZLht7XlxXJss_Qouf3dr-91" vertex="1">
                    <mxGeometry y="90" width="440" height="30" as="geometry"/>
                </mxCell>
                <mxCell id="ZLht7XlxXJss_Qouf3dr-112" value="location" style="shape=partialRectangle;html=1;whiteSpace=wrap;connectable=0;fillColor=#1ba1e2;top=0;left=0;bottom=0;right=0;overflow=hidden;fontColor=#ffffff;strokeColor=#006EAF;" parent="ZLht7XlxXJss_Qouf3dr-111" vertex="1">
                    <mxGeometry width="80" height="30" as="geometry">
                        <mxRectangle width="80" height="30" as="alternateBounds"/>
                    </mxGeometry>
                </mxCell>
                <mxCell id="ZLht7XlxXJss_Qouf3dr-113" value="table with its restaurant with its location contain location" style="shape=partialRectangle;html=1;whiteSpace=wrap;connectable=0;fillColor=#f9f7ed;top=0;left=0;bottom=0;right=0;align=left;spacingLeft=6;overflow=hidden;strokeColor=#36393d;fontColor=#000000;" parent="ZLht7XlxXJss_Qouf3dr-111" vertex="1">
                    <mxGeometry x="80" width="320" height="30" as="geometry">
                        <mxRectangle width="320" height="30" as="alternateBounds"/>
                    </mxGeometry>
                </mxCell>
                <mxCell id="ZLht7XlxXJss_Qouf3dr-123" value="Str" style="shape=partialRectangle;html=1;whiteSpace=wrap;connectable=0;fillColor=#6d8764;top=0;left=0;bottom=0;right=0;align=left;spacingLeft=6;overflow=hidden;strokeColor=#3A5431;fontColor=#ffffff;" parent="ZLht7XlxXJss_Qouf3dr-111" vertex="1">
                    <mxGeometry x="400" width="40" height="30" as="geometry">
                        <mxRectangle width="40" height="30" as="alternateBounds"/>
                    </mxGeometry>
                </mxCell>
                <mxCell id="ZLht7XlxXJss_Qouf3dr-114" style="shape=tableRow;horizontal=0;startSize=0;swimlaneHead=0;swimlaneBody=0;top=0;left=0;bottom=0;right=0;collapsible=0;dropTarget=0;fillColor=none;points=[[0,0.5],[1,0.5]];portConstraint=eastwest;" parent="ZLht7XlxXJss_Qouf3dr-91" vertex="1">
                    <mxGeometry y="120" width="440" height="30" as="geometry"/>
                </mxCell>
                <mxCell id="ZLht7XlxXJss_Qouf3dr-115" value="available" style="shape=partialRectangle;html=1;whiteSpace=wrap;connectable=0;fillColor=#1ba1e2;top=0;left=0;bottom=0;right=0;overflow=hidden;fontColor=#ffffff;strokeColor=#006EAF;" parent="ZLht7XlxXJss_Qouf3dr-114" vertex="1">
                    <mxGeometry width="80" height="30" as="geometry">
                        <mxRectangle width="80" height="30" as="alternateBounds"/>
                    </mxGeometry>
                </mxCell>
                <mxCell id="ZLht7XlxXJss_Qouf3dr-116" value="table is available or not. Default is True." style="shape=partialRectangle;html=1;whiteSpace=wrap;connectable=0;fillColor=#f9f7ed;top=0;left=0;bottom=0;right=0;align=left;spacingLeft=6;overflow=hidden;strokeColor=#36393d;fontColor=#000000;" parent="ZLht7XlxXJss_Qouf3dr-114" vertex="1">
                    <mxGeometry x="80" width="320" height="30" as="geometry">
                        <mxRectangle width="320" height="30" as="alternateBounds"/>
                    </mxGeometry>
                </mxCell>
                <mxCell id="ZLht7XlxXJss_Qouf3dr-124" value="Bool" style="shape=partialRectangle;html=1;whiteSpace=wrap;connectable=0;fillColor=#6d8764;top=0;left=0;bottom=0;right=0;align=left;spacingLeft=6;overflow=hidden;strokeColor=#3A5431;fontColor=#ffffff;" parent="ZLht7XlxXJss_Qouf3dr-114" vertex="1">
                    <mxGeometry x="400" width="40" height="30" as="geometry">
                        <mxRectangle width="40" height="30" as="alternateBounds"/>
                    </mxGeometry>
                </mxCell>
                <mxCell id="ZLht7XlxXJss_Qouf3dr-99" style="edgeStyle=orthogonalEdgeStyle;shape=link;html=1;strokeColor=#CC0000;strokeWidth=5;fontColor=#000000;" parent="1" source="ZLht7XlxXJss_Qouf3dr-6" target="ZLht7XlxXJss_Qouf3dr-35" edge="1">
                    <mxGeometry relative="1" as="geometry"/>
                </mxCell>
                <mxCell id="ZLht7XlxXJss_Qouf3dr-100" style="edgeStyle=orthogonalEdgeStyle;shape=link;html=1;strokeColor=#CC0000;strokeWidth=5;fontColor=#000000;" parent="1" source="ZLht7XlxXJss_Qouf3dr-58" target="ZLht7XlxXJss_Qouf3dr-91" edge="1">
                    <mxGeometry relative="1" as="geometry">
                        <Array as="points">
                            <mxPoint x="500" y="565"/>
                            <mxPoint x="500" y="405"/>
                        </Array>
                    </mxGeometry>
                </mxCell>
                <mxCell id="ZLht7XlxXJss_Qouf3dr-101" value="Form" style="shape=table;startSize=30;container=1;collapsible=0;childLayout=tableLayout;fixedRows=1;rowLines=0;fontStyle=1;fillColor=#f0a30a;fontColor=#000000;strokeColor=#BD7000;" parent="1" vertex="1">
                    <mxGeometry x="520" y="640" width="440" height="120" as="geometry"/>
                </mxCell>
                <mxCell id="ZLht7XlxXJss_Qouf3dr-102" value="" style="shape=tableRow;horizontal=0;startSize=0;swimlaneHead=0;swimlaneBody=0;top=0;left=0;bottom=0;right=0;collapsible=0;dropTarget=0;fillColor=none;points=[[0,0.5],[1,0.5]];portConstraint=eastwest;" parent="ZLht7XlxXJss_Qouf3dr-101" vertex="1">
                    <mxGeometry y="30" width="440" height="30" as="geometry"/>
                </mxCell>
                <mxCell id="ZLht7XlxXJss_Qouf3dr-103" value="max_no" style="shape=partialRectangle;html=1;whiteSpace=wrap;connectable=0;fillColor=#1ba1e2;top=0;left=0;bottom=0;right=0;overflow=hidden;pointerEvents=1;fontColor=#ffffff;strokeColor=#006EAF;" parent="ZLht7XlxXJss_Qouf3dr-102" vertex="1">
                    <mxGeometry width="80" height="30" as="geometry">
                        <mxRectangle width="80" height="30" as="alternateBounds"/>
                    </mxGeometry>
                </mxCell>
                <mxCell id="ZLht7XlxXJss_Qouf3dr-104" value="max capacity of table&lt;span style=&quot;white-space: pre;&quot;&gt;&#9;&lt;/span&gt;" style="shape=partialRectangle;html=1;whiteSpace=wrap;connectable=0;fillColor=#f9f7ed;top=0;left=0;bottom=0;right=0;align=left;spacingLeft=6;overflow=hidden;strokeColor=#36393d;fontColor=#000000;" parent="ZLht7XlxXJss_Qouf3dr-102" vertex="1">
                    <mxGeometry x="80" width="320" height="30" as="geometry">
                        <mxRectangle width="320" height="30" as="alternateBounds"/>
                    </mxGeometry>
                </mxCell>
                <mxCell id="ZLht7XlxXJss_Qouf3dr-125" value="Int" style="shape=partialRectangle;html=1;whiteSpace=wrap;connectable=0;fillColor=#6d8764;top=0;left=0;bottom=0;right=0;align=left;spacingLeft=6;overflow=hidden;strokeColor=#3A5431;fontColor=#ffffff;" parent="ZLht7XlxXJss_Qouf3dr-102" vertex="1">
                    <mxGeometry x="400" width="40" height="30" as="geometry">
                        <mxRectangle width="40" height="30" as="alternateBounds"/>
                    </mxGeometry>
                </mxCell>
                <mxCell id="ZLht7XlxXJss_Qouf3dr-105" value="" style="shape=tableRow;horizontal=0;startSize=0;swimlaneHead=0;swimlaneBody=0;top=0;left=0;bottom=0;right=0;collapsible=0;dropTarget=0;fillColor=none;points=[[0,0.5],[1,0.5]];portConstraint=eastwest;" parent="ZLht7XlxXJss_Qouf3dr-101" vertex="1">
                    <mxGeometry y="60" width="440" height="30" as="geometry"/>
                </mxCell>
                <mxCell id="ZLht7XlxXJss_Qouf3dr-106" value="restaurant_id" style="shape=partialRectangle;html=1;whiteSpace=wrap;connectable=0;fillColor=#1ba1e2;top=0;left=0;bottom=0;right=0;overflow=hidden;fontColor=#ffffff;strokeColor=#006EAF;" parent="ZLht7XlxXJss_Qouf3dr-105" vertex="1">
                    <mxGeometry width="80" height="30" as="geometry">
                        <mxRectangle width="80" height="30" as="alternateBounds"/>
                    </mxGeometry>
                </mxCell>
                <mxCell id="ZLht7XlxXJss_Qouf3dr-107" value="id of restaurant which table is" style="shape=partialRectangle;html=1;whiteSpace=wrap;connectable=0;fillColor=#f9f7ed;top=0;left=0;bottom=0;right=0;align=left;spacingLeft=6;overflow=hidden;strokeColor=#36393d;fontColor=#000000;" parent="ZLht7XlxXJss_Qouf3dr-105" vertex="1">
                    <mxGeometry x="80" width="320" height="30" as="geometry">
                        <mxRectangle width="320" height="30" as="alternateBounds"/>
                    </mxGeometry>
                </mxCell>
                <mxCell id="ZLht7XlxXJss_Qouf3dr-126" value="Int" style="shape=partialRectangle;html=1;whiteSpace=wrap;connectable=0;fillColor=#6d8764;top=0;left=0;bottom=0;right=0;align=left;spacingLeft=6;overflow=hidden;strokeColor=#3A5431;fontColor=#ffffff;" parent="ZLht7XlxXJss_Qouf3dr-105" vertex="1">
                    <mxGeometry x="400" width="40" height="30" as="geometry">
                        <mxRectangle width="40" height="30" as="alternateBounds"/>
                    </mxGeometry>
                </mxCell>
                <mxCell id="ZLht7XlxXJss_Qouf3dr-127" style="shape=tableRow;horizontal=0;startSize=0;swimlaneHead=0;swimlaneBody=0;top=0;left=0;bottom=0;right=0;collapsible=0;dropTarget=0;fillColor=none;points=[[0,0.5],[1,0.5]];portConstraint=eastwest;" parent="ZLht7XlxXJss_Qouf3dr-101" vertex="1">
                    <mxGeometry y="90" width="440" height="30" as="geometry"/>
                </mxCell>
                <mxCell id="ZLht7XlxXJss_Qouf3dr-128" value="available" style="shape=partialRectangle;html=1;whiteSpace=wrap;connectable=0;fillColor=#1ba1e2;top=0;left=0;bottom=0;right=0;overflow=hidden;fontColor=#ffffff;strokeColor=#006EAF;" parent="ZLht7XlxXJss_Qouf3dr-127" vertex="1">
                    <mxGeometry width="80" height="30" as="geometry">
                        <mxRectangle width="80" height="30" as="alternateBounds"/>
                    </mxGeometry>
                </mxCell>
                <mxCell id="ZLht7XlxXJss_Qouf3dr-129" value="table is available or not (not required, default is True)" style="shape=partialRectangle;html=1;whiteSpace=wrap;connectable=0;fillColor=#f9f7ed;top=0;left=0;bottom=0;right=0;align=left;spacingLeft=6;overflow=hidden;strokeColor=#36393d;fontColor=#000000;" parent="ZLht7XlxXJss_Qouf3dr-127" vertex="1">
                    <mxGeometry x="80" width="320" height="30" as="geometry">
                        <mxRectangle width="320" height="30" as="alternateBounds"/>
                    </mxGeometry>
                </mxCell>
                <mxCell id="ZLht7XlxXJss_Qouf3dr-130" value="Bool" style="shape=partialRectangle;html=1;whiteSpace=wrap;connectable=0;fillColor=#6d8764;top=0;left=0;bottom=0;right=0;align=left;spacingLeft=6;overflow=hidden;strokeColor=#3A5431;fontColor=#ffffff;" parent="ZLht7XlxXJss_Qouf3dr-127" vertex="1">
                    <mxGeometry x="400" width="40" height="30" as="geometry">
                        <mxRectangle width="40" height="30" as="alternateBounds"/>
                    </mxGeometry>
                </mxCell>
                <mxCell id="ZLht7XlxXJss_Qouf3dr-108" style="edgeStyle=orthogonalEdgeStyle;html=1;entryX=0.5;entryY=0;entryDx=0;entryDy=0;strokeColor=#CC0000;strokeWidth=5;fontColor=#000000;" parent="1" source="ZLht7XlxXJss_Qouf3dr-62" target="ZLht7XlxXJss_Qouf3dr-101" edge="1">
                    <mxGeometry relative="1" as="geometry"/>
                </mxCell>
                <mxCell id="ZLht7XlxXJss_Qouf3dr-109" style="edgeStyle=orthogonalEdgeStyle;html=1;entryX=0.5;entryY=0;entryDx=0;entryDy=0;strokeColor=#CC0000;strokeWidth=5;fontColor=#000000;" parent="1" source="ZLht7XlxXJss_Qouf3dr-70" target="ZLht7XlxXJss_Qouf3dr-101" edge="1">
                    <mxGeometry relative="1" as="geometry">
                        <Array as="points">
                            <mxPoint x="500" y="655"/>
                            <mxPoint x="500" y="600"/>
                            <mxPoint x="740" y="600"/>
                        </Array>
                    </mxGeometry>
                </mxCell>
                <mxCell id="ZLht7XlxXJss_Qouf3dr-131" value="Type" style="shape=table;startSize=30;container=1;collapsible=0;childLayout=tableLayout;fixedRows=1;rowLines=0;fontStyle=1;fillColor=#d80073;fontColor=#ffffff;strokeColor=#A50040;" parent="1" vertex="1">
                    <mxGeometry x="40" y="920" width="440" height="180" as="geometry"/>
                </mxCell>
                <mxCell id="ZLht7XlxXJss_Qouf3dr-132" value="" style="shape=tableRow;horizontal=0;startSize=0;swimlaneHead=0;swimlaneBody=0;top=0;left=0;bottom=0;right=0;collapsible=0;dropTarget=0;fillColor=none;points=[[0,0.5],[1,0.5]];portConstraint=eastwest;" parent="ZLht7XlxXJss_Qouf3dr-131" vertex="1">
                    <mxGeometry y="30" width="440" height="30" as="geometry"/>
                </mxCell>
                <mxCell id="ZLht7XlxXJss_Qouf3dr-133" value="GET" style="shape=partialRectangle;html=1;whiteSpace=wrap;connectable=0;fillColor=#1ba1e2;top=0;left=0;bottom=0;right=0;overflow=hidden;pointerEvents=1;fontColor=#ffffff;strokeColor=#006EAF;" parent="ZLht7XlxXJss_Qouf3dr-132" vertex="1">
                    <mxGeometry width="55" height="30" as="geometry">
                        <mxRectangle width="55" height="30" as="alternateBounds"/>
                    </mxGeometry>
                </mxCell>
                <mxCell id="ZLht7XlxXJss_Qouf3dr-134" value="api/type" style="shape=partialRectangle;html=1;whiteSpace=wrap;connectable=0;fillColor=#f9f7ed;top=0;left=0;bottom=0;right=0;align=left;spacingLeft=6;overflow=hidden;strokeColor=#36393d;fontColor=#000000;" parent="ZLht7XlxXJss_Qouf3dr-132" vertex="1">
                    <mxGeometry x="55" width="145" height="30" as="geometry">
                        <mxRectangle width="145" height="30" as="alternateBounds"/>
                    </mxGeometry>
                </mxCell>
                <mxCell id="ZLht7XlxXJss_Qouf3dr-135" value="list all type with its foods" style="shape=partialRectangle;html=1;whiteSpace=wrap;connectable=0;fillColor=#f9f7ed;top=0;left=0;bottom=0;right=0;align=left;spacingLeft=6;overflow=hidden;strokeColor=#36393d;fontColor=#000000;" parent="ZLht7XlxXJss_Qouf3dr-132" vertex="1">
                    <mxGeometry x="200" width="240" height="30" as="geometry">
                        <mxRectangle width="240" height="30" as="alternateBounds"/>
                    </mxGeometry>
                </mxCell>
                <mxCell id="ZLht7XlxXJss_Qouf3dr-136" value="" style="shape=tableRow;horizontal=0;startSize=0;swimlaneHead=0;swimlaneBody=0;top=0;left=0;bottom=0;right=0;collapsible=0;dropTarget=0;fillColor=none;points=[[0,0.5],[1,0.5]];portConstraint=eastwest;" parent="ZLht7XlxXJss_Qouf3dr-131" vertex="1">
                    <mxGeometry y="60" width="440" height="30" as="geometry"/>
                </mxCell>
                <mxCell id="ZLht7XlxXJss_Qouf3dr-137" value="POST" style="shape=partialRectangle;html=1;whiteSpace=wrap;connectable=0;fillColor=#1ba1e2;top=0;left=0;bottom=0;right=0;overflow=hidden;fontColor=#ffffff;strokeColor=#006EAF;" parent="ZLht7XlxXJss_Qouf3dr-136" vertex="1">
                    <mxGeometry width="55" height="30" as="geometry">
                        <mxRectangle width="55" height="30" as="alternateBounds"/>
                    </mxGeometry>
                </mxCell>
                <mxCell id="ZLht7XlxXJss_Qouf3dr-138" value="api/type" style="shape=partialRectangle;html=1;whiteSpace=wrap;connectable=0;fillColor=#f9f7ed;top=0;left=0;bottom=0;right=0;align=left;spacingLeft=6;overflow=hidden;strokeColor=#36393d;fontColor=#000000;" parent="ZLht7XlxXJss_Qouf3dr-136" vertex="1">
                    <mxGeometry x="55" width="145" height="30" as="geometry">
                        <mxRectangle width="145" height="30" as="alternateBounds"/>
                    </mxGeometry>
                </mxCell>
                <mxCell id="ZLht7XlxXJss_Qouf3dr-139" value="create new type, superuser only" style="shape=partialRectangle;html=1;whiteSpace=wrap;connectable=0;fillColor=#f9f7ed;top=0;left=0;bottom=0;right=0;align=left;spacingLeft=6;overflow=hidden;strokeColor=#36393d;fontColor=#000000;" parent="ZLht7XlxXJss_Qouf3dr-136" vertex="1">
                    <mxGeometry x="200" width="240" height="30" as="geometry">
                        <mxRectangle width="240" height="30" as="alternateBounds"/>
                    </mxGeometry>
                </mxCell>
                <mxCell id="ZLht7XlxXJss_Qouf3dr-140" value="" style="shape=tableRow;horizontal=0;startSize=0;swimlaneHead=0;swimlaneBody=0;top=0;left=0;bottom=0;right=0;collapsible=0;dropTarget=0;fillColor=none;points=[[0,0.5],[1,0.5]];portConstraint=eastwest;" parent="ZLht7XlxXJss_Qouf3dr-131" vertex="1">
                    <mxGeometry y="90" width="440" height="30" as="geometry"/>
                </mxCell>
                <mxCell id="ZLht7XlxXJss_Qouf3dr-141" value="GET" style="shape=partialRectangle;html=1;whiteSpace=wrap;connectable=0;fillColor=#1ba1e2;top=0;left=0;bottom=0;right=0;overflow=hidden;fontColor=#ffffff;strokeColor=#006EAF;" parent="ZLht7XlxXJss_Qouf3dr-140" vertex="1">
                    <mxGeometry width="55" height="30" as="geometry">
                        <mxRectangle width="55" height="30" as="alternateBounds"/>
                    </mxGeometry>
                </mxCell>
                <mxCell id="ZLht7XlxXJss_Qouf3dr-142" value="api/type/&amp;lt;int:pk&amp;gt;" style="shape=partialRectangle;html=1;whiteSpace=wrap;connectable=0;fillColor=#f9f7ed;top=0;left=0;bottom=0;right=0;align=left;spacingLeft=6;overflow=hidden;strokeColor=#36393d;fontColor=#000000;" parent="ZLht7XlxXJss_Qouf3dr-140" vertex="1">
                    <mxGeometry x="55" width="145" height="30" as="geometry">
                        <mxRectangle width="145" height="30" as="alternateBounds"/>
                    </mxGeometry>
                </mxCell>
                <mxCell id="ZLht7XlxXJss_Qouf3dr-143" value="get a type with id" style="shape=partialRectangle;html=1;whiteSpace=wrap;connectable=0;fillColor=#f9f7ed;top=0;left=0;bottom=0;right=0;align=left;spacingLeft=6;overflow=hidden;strokeColor=#36393d;fontColor=#000000;" parent="ZLht7XlxXJss_Qouf3dr-140" vertex="1">
                    <mxGeometry x="200" width="240" height="30" as="geometry">
                        <mxRectangle width="240" height="30" as="alternateBounds"/>
                    </mxGeometry>
                </mxCell>
                <mxCell id="ZLht7XlxXJss_Qouf3dr-144" style="shape=tableRow;horizontal=0;startSize=0;swimlaneHead=0;swimlaneBody=0;top=0;left=0;bottom=0;right=0;collapsible=0;dropTarget=0;fillColor=none;points=[[0,0.5],[1,0.5]];portConstraint=eastwest;" parent="ZLht7XlxXJss_Qouf3dr-131" vertex="1">
                    <mxGeometry y="120" width="440" height="30" as="geometry"/>
                </mxCell>
                <mxCell id="ZLht7XlxXJss_Qouf3dr-145" value="PUT" style="shape=partialRectangle;html=1;whiteSpace=wrap;connectable=0;fillColor=#1ba1e2;top=0;left=0;bottom=0;right=0;overflow=hidden;fontColor=#ffffff;strokeColor=#006EAF;" parent="ZLht7XlxXJss_Qouf3dr-144" vertex="1">
                    <mxGeometry width="55" height="30" as="geometry">
                        <mxRectangle width="55" height="30" as="alternateBounds"/>
                    </mxGeometry>
                </mxCell>
                <mxCell id="ZLht7XlxXJss_Qouf3dr-146" value="api/type/&amp;lt;int:pk&amp;gt;" style="shape=partialRectangle;html=1;whiteSpace=wrap;connectable=0;fillColor=#f9f7ed;top=0;left=0;bottom=0;right=0;align=left;spacingLeft=6;overflow=hidden;strokeColor=#36393d;fontColor=#000000;" parent="ZLht7XlxXJss_Qouf3dr-144" vertex="1">
                    <mxGeometry x="55" width="145" height="30" as="geometry">
                        <mxRectangle width="145" height="30" as="alternateBounds"/>
                    </mxGeometry>
                </mxCell>
                <mxCell id="ZLht7XlxXJss_Qouf3dr-147" value="update the information of type with id, superuser only" style="shape=partialRectangle;html=1;whiteSpace=wrap;connectable=0;fillColor=#f9f7ed;top=0;left=0;bottom=0;right=0;align=left;spacingLeft=6;overflow=hidden;strokeColor=#36393d;fontColor=#000000;" parent="ZLht7XlxXJss_Qouf3dr-144" vertex="1">
                    <mxGeometry x="200" width="240" height="30" as="geometry">
                        <mxRectangle width="240" height="30" as="alternateBounds"/>
                    </mxGeometry>
                </mxCell>
                <mxCell id="ZLht7XlxXJss_Qouf3dr-148" style="shape=tableRow;horizontal=0;startSize=0;swimlaneHead=0;swimlaneBody=0;top=0;left=0;bottom=0;right=0;collapsible=0;dropTarget=0;fillColor=none;points=[[0,0.5],[1,0.5]];portConstraint=eastwest;" parent="ZLht7XlxXJss_Qouf3dr-131" vertex="1">
                    <mxGeometry y="150" width="440" height="30" as="geometry"/>
                </mxCell>
                <mxCell id="ZLht7XlxXJss_Qouf3dr-149" value="DELETE" style="shape=partialRectangle;html=1;whiteSpace=wrap;connectable=0;fillColor=#1ba1e2;top=0;left=0;bottom=0;right=0;overflow=hidden;fontColor=#ffffff;strokeColor=#006EAF;" parent="ZLht7XlxXJss_Qouf3dr-148" vertex="1">
                    <mxGeometry width="55" height="30" as="geometry">
                        <mxRectangle width="55" height="30" as="alternateBounds"/>
                    </mxGeometry>
                </mxCell>
                <mxCell id="ZLht7XlxXJss_Qouf3dr-150" value="api/type/&amp;lt;int:pk&amp;gt;" style="shape=partialRectangle;html=1;whiteSpace=wrap;connectable=0;fillColor=#f9f7ed;top=0;left=0;bottom=0;right=0;align=left;spacingLeft=6;overflow=hidden;strokeColor=#36393d;fontColor=#000000;" parent="ZLht7XlxXJss_Qouf3dr-148" vertex="1">
                    <mxGeometry x="55" width="145" height="30" as="geometry">
                        <mxRectangle width="145" height="30" as="alternateBounds"/>
                    </mxGeometry>
                </mxCell>
                <mxCell id="ZLht7XlxXJss_Qouf3dr-151" value="delete a type with id, superuser only" style="shape=partialRectangle;html=1;whiteSpace=wrap;connectable=0;fillColor=#f9f7ed;top=0;left=0;bottom=0;right=0;align=left;spacingLeft=6;overflow=hidden;strokeColor=#36393d;fontColor=#000000;" parent="ZLht7XlxXJss_Qouf3dr-148" vertex="1">
                    <mxGeometry x="200" width="240" height="30" as="geometry">
                        <mxRectangle width="240" height="30" as="alternateBounds"/>
                    </mxGeometry>
                </mxCell>
                <mxCell id="qVIoQQf5MSeG1HPEL_P0-1" value="Filter" style="shape=table;startSize=30;container=1;collapsible=0;childLayout=tableLayout;fixedRows=1;rowLines=0;fontStyle=1;fillColor=#f0a30a;fontColor=#000000;strokeColor=#BD7000;" parent="1" vertex="1">
                    <mxGeometry x="520" y="800" width="440" height="60" as="geometry"/>
                </mxCell>
                <mxCell id="qVIoQQf5MSeG1HPEL_P0-2" value="" style="shape=tableRow;horizontal=0;startSize=0;swimlaneHead=0;swimlaneBody=0;top=0;left=0;bottom=0;right=0;collapsible=0;dropTarget=0;fillColor=none;points=[[0,0.5],[1,0.5]];portConstraint=eastwest;" parent="qVIoQQf5MSeG1HPEL_P0-1" vertex="1">
                    <mxGeometry y="30" width="440" height="30" as="geometry"/>
                </mxCell>
                <mxCell id="qVIoQQf5MSeG1HPEL_P0-3" value="search" style="shape=partialRectangle;html=1;whiteSpace=wrap;connectable=0;fillColor=#1ba1e2;top=0;left=0;bottom=0;right=0;overflow=hidden;pointerEvents=1;fontColor=#ffffff;strokeColor=#006EAF;" parent="qVIoQQf5MSeG1HPEL_P0-2" vertex="1">
                    <mxGeometry width="80" height="30" as="geometry">
                        <mxRectangle width="80" height="30" as="alternateBounds"/>
                    </mxGeometry>
                </mxCell>
                <mxCell id="qVIoQQf5MSeG1HPEL_P0-4" value="type with chinese name contains search OR english name contains search" style="shape=partialRectangle;html=1;whiteSpace=wrap;connectable=0;fillColor=#f9f7ed;top=0;left=0;bottom=0;right=0;align=left;spacingLeft=6;overflow=hidden;strokeColor=#36393d;fontColor=#000000;" parent="qVIoQQf5MSeG1HPEL_P0-2" vertex="1">
                    <mxGeometry x="80" width="320" height="30" as="geometry">
                        <mxRectangle width="320" height="30" as="alternateBounds"/>
                    </mxGeometry>
                </mxCell>
                <mxCell id="qVIoQQf5MSeG1HPEL_P0-5" value="Str" style="shape=partialRectangle;html=1;whiteSpace=wrap;connectable=0;fillColor=#6d8764;top=0;left=0;bottom=0;right=0;align=left;spacingLeft=6;overflow=hidden;strokeColor=#3A5431;fontColor=#ffffff;" parent="qVIoQQf5MSeG1HPEL_P0-2" vertex="1">
                    <mxGeometry x="400" width="40" height="30" as="geometry">
                        <mxRectangle width="40" height="30" as="alternateBounds"/>
                    </mxGeometry>
                </mxCell>
                <mxCell id="qVIoQQf5MSeG1HPEL_P0-18" style="edgeStyle=orthogonalEdgeStyle;html=1;strokeColor=#FF0000;strokeWidth=5;fontColor=#000000;shape=link;" parent="1" source="ZLht7XlxXJss_Qouf3dr-132" target="qVIoQQf5MSeG1HPEL_P0-1" edge="1">
                    <mxGeometry relative="1" as="geometry">
                        <Array as="points">
                            <mxPoint x="500" y="965"/>
                            <mxPoint x="500" y="830"/>
                        </Array>
                    </mxGeometry>
                </mxCell>
                <mxCell id="qVIoQQf5MSeG1HPEL_P0-19" value="Form" style="shape=table;startSize=30;container=1;collapsible=0;childLayout=tableLayout;fixedRows=1;rowLines=0;fontStyle=1;fillColor=#f0a30a;fontColor=#000000;strokeColor=#BD7000;" parent="1" vertex="1">
                    <mxGeometry x="520" y="1040" width="440" height="90" as="geometry"/>
                </mxCell>
                <mxCell id="qVIoQQf5MSeG1HPEL_P0-20" value="" style="shape=tableRow;horizontal=0;startSize=0;swimlaneHead=0;swimlaneBody=0;top=0;left=0;bottom=0;right=0;collapsible=0;dropTarget=0;fillColor=none;points=[[0,0.5],[1,0.5]];portConstraint=eastwest;" parent="qVIoQQf5MSeG1HPEL_P0-19" vertex="1">
                    <mxGeometry y="30" width="440" height="30" as="geometry"/>
                </mxCell>
                <mxCell id="qVIoQQf5MSeG1HPEL_P0-21" value="chinese_name" style="shape=partialRectangle;html=1;whiteSpace=wrap;connectable=0;fillColor=#1ba1e2;top=0;left=0;bottom=0;right=0;overflow=hidden;pointerEvents=1;fontColor=#ffffff;strokeColor=#006EAF;" parent="qVIoQQf5MSeG1HPEL_P0-20" vertex="1">
                    <mxGeometry width="80" height="30" as="geometry">
                        <mxRectangle width="80" height="30" as="alternateBounds"/>
                    </mxGeometry>
                </mxCell>
                <mxCell id="qVIoQQf5MSeG1HPEL_P0-22" value="chinese name of type" style="shape=partialRectangle;html=1;whiteSpace=wrap;connectable=0;fillColor=#f9f7ed;top=0;left=0;bottom=0;right=0;align=left;spacingLeft=6;overflow=hidden;strokeColor=#36393d;fontColor=#000000;" parent="qVIoQQf5MSeG1HPEL_P0-20" vertex="1">
                    <mxGeometry x="80" width="320" height="30" as="geometry">
                        <mxRectangle width="320" height="30" as="alternateBounds"/>
                    </mxGeometry>
                </mxCell>
                <mxCell id="qVIoQQf5MSeG1HPEL_P0-23" value="Str" style="shape=partialRectangle;html=1;whiteSpace=wrap;connectable=0;fillColor=#6d8764;top=0;left=0;bottom=0;right=0;align=left;spacingLeft=6;overflow=hidden;strokeColor=#3A5431;fontColor=#ffffff;" parent="qVIoQQf5MSeG1HPEL_P0-20" vertex="1">
                    <mxGeometry x="400" width="40" height="30" as="geometry">
                        <mxRectangle width="40" height="30" as="alternateBounds"/>
                    </mxGeometry>
                </mxCell>
                <mxCell id="qVIoQQf5MSeG1HPEL_P0-24" value="" style="shape=tableRow;horizontal=0;startSize=0;swimlaneHead=0;swimlaneBody=0;top=0;left=0;bottom=0;right=0;collapsible=0;dropTarget=0;fillColor=none;points=[[0,0.5],[1,0.5]];portConstraint=eastwest;" parent="qVIoQQf5MSeG1HPEL_P0-19" vertex="1">
                    <mxGeometry y="60" width="440" height="30" as="geometry"/>
                </mxCell>
                <mxCell id="qVIoQQf5MSeG1HPEL_P0-25" value="english_name" style="shape=partialRectangle;html=1;whiteSpace=wrap;connectable=0;fillColor=#1ba1e2;top=0;left=0;bottom=0;right=0;overflow=hidden;fontColor=#ffffff;strokeColor=#006EAF;" parent="qVIoQQf5MSeG1HPEL_P0-24" vertex="1">
                    <mxGeometry width="80" height="30" as="geometry">
                        <mxRectangle width="80" height="30" as="alternateBounds"/>
                    </mxGeometry>
                </mxCell>
                <mxCell id="qVIoQQf5MSeG1HPEL_P0-26" value="english name of type" style="shape=partialRectangle;html=1;whiteSpace=wrap;connectable=0;fillColor=#f9f7ed;top=0;left=0;bottom=0;right=0;align=left;spacingLeft=6;overflow=hidden;strokeColor=#36393d;fontColor=#000000;" parent="qVIoQQf5MSeG1HPEL_P0-24" vertex="1">
                    <mxGeometry x="80" width="320" height="30" as="geometry">
                        <mxRectangle width="320" height="30" as="alternateBounds"/>
                    </mxGeometry>
                </mxCell>
                <mxCell id="qVIoQQf5MSeG1HPEL_P0-27" value="Str" style="shape=partialRectangle;html=1;whiteSpace=wrap;connectable=0;fillColor=#6d8764;top=0;left=0;bottom=0;right=0;align=left;spacingLeft=6;overflow=hidden;strokeColor=#3A5431;fontColor=#ffffff;" parent="qVIoQQf5MSeG1HPEL_P0-24" vertex="1">
                    <mxGeometry x="400" width="40" height="30" as="geometry">
                        <mxRectangle width="40" height="30" as="alternateBounds"/>
                    </mxGeometry>
                </mxCell>
                <mxCell id="qVIoQQf5MSeG1HPEL_P0-32" style="edgeStyle=orthogonalEdgeStyle;html=1;strokeColor=#FF0000;strokeWidth=5;fontColor=#000000;" parent="1" source="ZLht7XlxXJss_Qouf3dr-136" target="qVIoQQf5MSeG1HPEL_P0-19" edge="1">
                    <mxGeometry relative="1" as="geometry"/>
                </mxCell>
                <mxCell id="qVIoQQf5MSeG1HPEL_P0-33" style="edgeStyle=orthogonalEdgeStyle;html=1;entryX=0.5;entryY=0;entryDx=0;entryDy=0;strokeColor=#FF0000;strokeWidth=5;fontColor=#000000;" parent="1" source="ZLht7XlxXJss_Qouf3dr-144" target="qVIoQQf5MSeG1HPEL_P0-19" edge="1">
                    <mxGeometry relative="1" as="geometry">
                        <Array as="points">
                            <mxPoint x="500" y="1055"/>
                            <mxPoint x="500" y="1000"/>
                            <mxPoint x="740" y="1000"/>
                        </Array>
                    </mxGeometry>
                </mxCell>
                <mxCell id="pnntRmNtqDmFzkJrqk4B-1" value="Food" style="shape=table;startSize=30;container=1;collapsible=0;childLayout=tableLayout;fixedRows=1;rowLines=0;fontStyle=1;fillColor=#d80073;fontColor=#ffffff;strokeColor=#A50040;" parent="1" vertex="1">
                    <mxGeometry x="40" y="1360" width="440" height="180" as="geometry"/>
                </mxCell>
                <mxCell id="pnntRmNtqDmFzkJrqk4B-2" value="" style="shape=tableRow;horizontal=0;startSize=0;swimlaneHead=0;swimlaneBody=0;top=0;left=0;bottom=0;right=0;collapsible=0;dropTarget=0;fillColor=none;points=[[0,0.5],[1,0.5]];portConstraint=eastwest;" parent="pnntRmNtqDmFzkJrqk4B-1" vertex="1">
                    <mxGeometry y="30" width="440" height="30" as="geometry"/>
                </mxCell>
                <mxCell id="pnntRmNtqDmFzkJrqk4B-3" value="GET" style="shape=partialRectangle;html=1;whiteSpace=wrap;connectable=0;fillColor=#1ba1e2;top=0;left=0;bottom=0;right=0;overflow=hidden;pointerEvents=1;fontColor=#ffffff;strokeColor=#006EAF;" parent="pnntRmNtqDmFzkJrqk4B-2" vertex="1">
                    <mxGeometry width="55" height="30" as="geometry">
                        <mxRectangle width="55" height="30" as="alternateBounds"/>
                    </mxGeometry>
                </mxCell>
                <mxCell id="pnntRmNtqDmFzkJrqk4B-4" value="api/food" style="shape=partialRectangle;html=1;whiteSpace=wrap;connectable=0;fillColor=#f9f7ed;top=0;left=0;bottom=0;right=0;align=left;spacingLeft=6;overflow=hidden;strokeColor=#36393d;fontColor=#000000;" parent="pnntRmNtqDmFzkJrqk4B-2" vertex="1">
                    <mxGeometry x="55" width="145" height="30" as="geometry">
                        <mxRectangle width="145" height="30" as="alternateBounds"/>
                    </mxGeometry>
                </mxCell>
                <mxCell id="pnntRmNtqDmFzkJrqk4B-5" value="list all food with its type" style="shape=partialRectangle;html=1;whiteSpace=wrap;connectable=0;fillColor=#f9f7ed;top=0;left=0;bottom=0;right=0;align=left;spacingLeft=6;overflow=hidden;strokeColor=#36393d;fontColor=#000000;" parent="pnntRmNtqDmFzkJrqk4B-2" vertex="1">
                    <mxGeometry x="200" width="240" height="30" as="geometry">
                        <mxRectangle width="240" height="30" as="alternateBounds"/>
                    </mxGeometry>
                </mxCell>
                <mxCell id="pnntRmNtqDmFzkJrqk4B-6" value="" style="shape=tableRow;horizontal=0;startSize=0;swimlaneHead=0;swimlaneBody=0;top=0;left=0;bottom=0;right=0;collapsible=0;dropTarget=0;fillColor=none;points=[[0,0.5],[1,0.5]];portConstraint=eastwest;" parent="pnntRmNtqDmFzkJrqk4B-1" vertex="1">
                    <mxGeometry y="60" width="440" height="30" as="geometry"/>
                </mxCell>
                <mxCell id="pnntRmNtqDmFzkJrqk4B-7" value="POST" style="shape=partialRectangle;html=1;whiteSpace=wrap;connectable=0;fillColor=#1ba1e2;top=0;left=0;bottom=0;right=0;overflow=hidden;fontColor=#ffffff;strokeColor=#006EAF;" parent="pnntRmNtqDmFzkJrqk4B-6" vertex="1">
                    <mxGeometry width="55" height="30" as="geometry">
                        <mxRectangle width="55" height="30" as="alternateBounds"/>
                    </mxGeometry>
                </mxCell>
                <mxCell id="pnntRmNtqDmFzkJrqk4B-8" value="api/food" style="shape=partialRectangle;html=1;whiteSpace=wrap;connectable=0;fillColor=#f9f7ed;top=0;left=0;bottom=0;right=0;align=left;spacingLeft=6;overflow=hidden;strokeColor=#36393d;fontColor=#000000;" parent="pnntRmNtqDmFzkJrqk4B-6" vertex="1">
                    <mxGeometry x="55" width="145" height="30" as="geometry">
                        <mxRectangle width="145" height="30" as="alternateBounds"/>
                    </mxGeometry>
                </mxCell>
                <mxCell id="pnntRmNtqDmFzkJrqk4B-9" value="create new food, superuser only" style="shape=partialRectangle;html=1;whiteSpace=wrap;connectable=0;fillColor=#f9f7ed;top=0;left=0;bottom=0;right=0;align=left;spacingLeft=6;overflow=hidden;strokeColor=#36393d;fontColor=#000000;" parent="pnntRmNtqDmFzkJrqk4B-6" vertex="1">
                    <mxGeometry x="200" width="240" height="30" as="geometry">
                        <mxRectangle width="240" height="30" as="alternateBounds"/>
                    </mxGeometry>
                </mxCell>
                <mxCell id="pnntRmNtqDmFzkJrqk4B-10" value="" style="shape=tableRow;horizontal=0;startSize=0;swimlaneHead=0;swimlaneBody=0;top=0;left=0;bottom=0;right=0;collapsible=0;dropTarget=0;fillColor=none;points=[[0,0.5],[1,0.5]];portConstraint=eastwest;" parent="pnntRmNtqDmFzkJrqk4B-1" vertex="1">
                    <mxGeometry y="90" width="440" height="30" as="geometry"/>
                </mxCell>
                <mxCell id="pnntRmNtqDmFzkJrqk4B-11" value="GET" style="shape=partialRectangle;html=1;whiteSpace=wrap;connectable=0;fillColor=#1ba1e2;top=0;left=0;bottom=0;right=0;overflow=hidden;fontColor=#ffffff;strokeColor=#006EAF;" parent="pnntRmNtqDmFzkJrqk4B-10" vertex="1">
                    <mxGeometry width="55" height="30" as="geometry">
                        <mxRectangle width="55" height="30" as="alternateBounds"/>
                    </mxGeometry>
                </mxCell>
                <mxCell id="pnntRmNtqDmFzkJrqk4B-12" value="api/food/&amp;lt;int:pk&amp;gt;" style="shape=partialRectangle;html=1;whiteSpace=wrap;connectable=0;fillColor=#f9f7ed;top=0;left=0;bottom=0;right=0;align=left;spacingLeft=6;overflow=hidden;strokeColor=#36393d;fontColor=#000000;" parent="pnntRmNtqDmFzkJrqk4B-10" vertex="1">
                    <mxGeometry x="55" width="145" height="30" as="geometry">
                        <mxRectangle width="145" height="30" as="alternateBounds"/>
                    </mxGeometry>
                </mxCell>
                <mxCell id="pnntRmNtqDmFzkJrqk4B-13" value="get a food with id" style="shape=partialRectangle;html=1;whiteSpace=wrap;connectable=0;fillColor=#f9f7ed;top=0;left=0;bottom=0;right=0;align=left;spacingLeft=6;overflow=hidden;strokeColor=#36393d;fontColor=#000000;" parent="pnntRmNtqDmFzkJrqk4B-10" vertex="1">
                    <mxGeometry x="200" width="240" height="30" as="geometry">
                        <mxRectangle width="240" height="30" as="alternateBounds"/>
                    </mxGeometry>
                </mxCell>
                <mxCell id="pnntRmNtqDmFzkJrqk4B-14" style="shape=tableRow;horizontal=0;startSize=0;swimlaneHead=0;swimlaneBody=0;top=0;left=0;bottom=0;right=0;collapsible=0;dropTarget=0;fillColor=none;points=[[0,0.5],[1,0.5]];portConstraint=eastwest;" parent="pnntRmNtqDmFzkJrqk4B-1" vertex="1">
                    <mxGeometry y="120" width="440" height="30" as="geometry"/>
                </mxCell>
                <mxCell id="pnntRmNtqDmFzkJrqk4B-15" value="PUT" style="shape=partialRectangle;html=1;whiteSpace=wrap;connectable=0;fillColor=#1ba1e2;top=0;left=0;bottom=0;right=0;overflow=hidden;fontColor=#ffffff;strokeColor=#006EAF;" parent="pnntRmNtqDmFzkJrqk4B-14" vertex="1">
                    <mxGeometry width="55" height="30" as="geometry">
                        <mxRectangle width="55" height="30" as="alternateBounds"/>
                    </mxGeometry>
                </mxCell>
                <mxCell id="pnntRmNtqDmFzkJrqk4B-16" value="api/food/&amp;lt;int:pk&amp;gt;" style="shape=partialRectangle;html=1;whiteSpace=wrap;connectable=0;fillColor=#f9f7ed;top=0;left=0;bottom=0;right=0;align=left;spacingLeft=6;overflow=hidden;strokeColor=#36393d;fontColor=#000000;" parent="pnntRmNtqDmFzkJrqk4B-14" vertex="1">
                    <mxGeometry x="55" width="145" height="30" as="geometry">
                        <mxRectangle width="145" height="30" as="alternateBounds"/>
                    </mxGeometry>
                </mxCell>
                <mxCell id="pnntRmNtqDmFzkJrqk4B-17" value="update the information of food with id, superuser only" style="shape=partialRectangle;html=1;whiteSpace=wrap;connectable=0;fillColor=#f9f7ed;top=0;left=0;bottom=0;right=0;align=left;spacingLeft=6;overflow=hidden;strokeColor=#36393d;fontColor=#000000;" parent="pnntRmNtqDmFzkJrqk4B-14" vertex="1">
                    <mxGeometry x="200" width="240" height="30" as="geometry">
                        <mxRectangle width="240" height="30" as="alternateBounds"/>
                    </mxGeometry>
                </mxCell>
                <mxCell id="pnntRmNtqDmFzkJrqk4B-18" style="shape=tableRow;horizontal=0;startSize=0;swimlaneHead=0;swimlaneBody=0;top=0;left=0;bottom=0;right=0;collapsible=0;dropTarget=0;fillColor=none;points=[[0,0.5],[1,0.5]];portConstraint=eastwest;" parent="pnntRmNtqDmFzkJrqk4B-1" vertex="1">
                    <mxGeometry y="150" width="440" height="30" as="geometry"/>
                </mxCell>
                <mxCell id="pnntRmNtqDmFzkJrqk4B-19" value="DELETE" style="shape=partialRectangle;html=1;whiteSpace=wrap;connectable=0;fillColor=#1ba1e2;top=0;left=0;bottom=0;right=0;overflow=hidden;fontColor=#ffffff;strokeColor=#006EAF;" parent="pnntRmNtqDmFzkJrqk4B-18" vertex="1">
                    <mxGeometry width="55" height="30" as="geometry">
                        <mxRectangle width="55" height="30" as="alternateBounds"/>
                    </mxGeometry>
                </mxCell>
                <mxCell id="pnntRmNtqDmFzkJrqk4B-20" value="api/food/&amp;lt;int:pk&amp;gt;" style="shape=partialRectangle;html=1;whiteSpace=wrap;connectable=0;fillColor=#f9f7ed;top=0;left=0;bottom=0;right=0;align=left;spacingLeft=6;overflow=hidden;strokeColor=#36393d;fontColor=#000000;" parent="pnntRmNtqDmFzkJrqk4B-18" vertex="1">
                    <mxGeometry x="55" width="145" height="30" as="geometry">
                        <mxRectangle width="145" height="30" as="alternateBounds"/>
                    </mxGeometry>
                </mxCell>
                <mxCell id="pnntRmNtqDmFzkJrqk4B-21" value="delete a foodwith id, superuser only" style="shape=partialRectangle;html=1;whiteSpace=wrap;connectable=0;fillColor=#f9f7ed;top=0;left=0;bottom=0;right=0;align=left;spacingLeft=6;overflow=hidden;strokeColor=#36393d;fontColor=#000000;" parent="pnntRmNtqDmFzkJrqk4B-18" vertex="1">
                    <mxGeometry x="200" width="240" height="30" as="geometry">
                        <mxRectangle width="240" height="30" as="alternateBounds"/>
                    </mxGeometry>
                </mxCell>
                <mxCell id="pnntRmNtqDmFzkJrqk4B-22" value="Filter" style="shape=table;startSize=30;container=1;collapsible=0;childLayout=tableLayout;fixedRows=1;rowLines=0;fontStyle=1;fillColor=#f0a30a;fontColor=#000000;strokeColor=#BD7000;" parent="1" vertex="1">
                    <mxGeometry x="520" y="1200" width="440" height="210" as="geometry"/>
                </mxCell>
                <mxCell id="pnntRmNtqDmFzkJrqk4B-23" value="" style="shape=tableRow;horizontal=0;startSize=0;swimlaneHead=0;swimlaneBody=0;top=0;left=0;bottom=0;right=0;collapsible=0;dropTarget=0;fillColor=none;points=[[0,0.5],[1,0.5]];portConstraint=eastwest;" parent="pnntRmNtqDmFzkJrqk4B-22" vertex="1">
                    <mxGeometry y="30" width="440" height="30" as="geometry"/>
                </mxCell>
                <mxCell id="pnntRmNtqDmFzkJrqk4B-24" value="name" style="shape=partialRectangle;html=1;whiteSpace=wrap;connectable=0;fillColor=#1ba1e2;top=0;left=0;bottom=0;right=0;overflow=hidden;pointerEvents=1;fontColor=#ffffff;strokeColor=#006EAF;" parent="pnntRmNtqDmFzkJrqk4B-23" vertex="1">
                    <mxGeometry width="80" height="30" as="geometry">
                        <mxRectangle width="80" height="30" as="alternateBounds"/>
                    </mxGeometry>
                </mxCell>
                <mxCell id="pnntRmNtqDmFzkJrqk4B-25" value="food with its chinese name contain name OR its english name contain name" style="shape=partialRectangle;html=1;whiteSpace=wrap;connectable=0;fillColor=#f9f7ed;top=0;left=0;bottom=0;right=0;align=left;spacingLeft=6;overflow=hidden;strokeColor=#36393d;fontColor=#000000;" parent="pnntRmNtqDmFzkJrqk4B-23" vertex="1">
                    <mxGeometry x="80" width="320" height="30" as="geometry">
                        <mxRectangle width="320" height="30" as="alternateBounds"/>
                    </mxGeometry>
                </mxCell>
                <mxCell id="pnntRmNtqDmFzkJrqk4B-26" value="Str" style="shape=partialRectangle;html=1;whiteSpace=wrap;connectable=0;fillColor=#6d8764;top=0;left=0;bottom=0;right=0;align=left;spacingLeft=6;overflow=hidden;strokeColor=#3A5431;fontColor=#ffffff;" parent="pnntRmNtqDmFzkJrqk4B-23" vertex="1">
                    <mxGeometry x="400" width="40" height="30" as="geometry">
                        <mxRectangle width="40" height="30" as="alternateBounds"/>
                    </mxGeometry>
                </mxCell>
                <mxCell id="pnntRmNtqDmFzkJrqk4B-28" style="shape=tableRow;horizontal=0;startSize=0;swimlaneHead=0;swimlaneBody=0;top=0;left=0;bottom=0;right=0;collapsible=0;dropTarget=0;fillColor=none;points=[[0,0.5],[1,0.5]];portConstraint=eastwest;" parent="pnntRmNtqDmFzkJrqk4B-22" vertex="1">
                    <mxGeometry y="60" width="440" height="30" as="geometry"/>
                </mxCell>
                <mxCell id="pnntRmNtqDmFzkJrqk4B-29" value="price_lte" style="shape=partialRectangle;html=1;whiteSpace=wrap;connectable=0;fillColor=#1ba1e2;top=0;left=0;bottom=0;right=0;overflow=hidden;pointerEvents=1;fontColor=#ffffff;strokeColor=#006EAF;" parent="pnntRmNtqDmFzkJrqk4B-28" vertex="1">
                    <mxGeometry width="80" height="30" as="geometry">
                        <mxRectangle width="80" height="30" as="alternateBounds"/>
                    </mxGeometry>
                </mxCell>
                <mxCell id="pnntRmNtqDmFzkJrqk4B-30" value="price of food is less than price_lte" style="shape=partialRectangle;html=1;whiteSpace=wrap;connectable=0;fillColor=#f9f7ed;top=0;left=0;bottom=0;right=0;align=left;spacingLeft=6;overflow=hidden;strokeColor=#36393d;fontColor=#000000;" parent="pnntRmNtqDmFzkJrqk4B-28" vertex="1">
                    <mxGeometry x="80" width="320" height="30" as="geometry">
                        <mxRectangle width="320" height="30" as="alternateBounds"/>
                    </mxGeometry>
                </mxCell>
                <mxCell id="pnntRmNtqDmFzkJrqk4B-31" value="Float" style="shape=partialRectangle;html=1;whiteSpace=wrap;connectable=0;fillColor=#6d8764;top=0;left=0;bottom=0;right=0;align=left;spacingLeft=6;overflow=hidden;strokeColor=#3A5431;fontColor=#ffffff;" parent="pnntRmNtqDmFzkJrqk4B-28" vertex="1">
                    <mxGeometry x="400" width="40" height="30" as="geometry">
                        <mxRectangle width="40" height="30" as="alternateBounds"/>
                    </mxGeometry>
                </mxCell>
                <mxCell id="pnntRmNtqDmFzkJrqk4B-36" style="shape=tableRow;horizontal=0;startSize=0;swimlaneHead=0;swimlaneBody=0;top=0;left=0;bottom=0;right=0;collapsible=0;dropTarget=0;fillColor=none;points=[[0,0.5],[1,0.5]];portConstraint=eastwest;" parent="pnntRmNtqDmFzkJrqk4B-22" vertex="1">
                    <mxGeometry y="90" width="440" height="30" as="geometry"/>
                </mxCell>
                <mxCell id="pnntRmNtqDmFzkJrqk4B-37" value="price_gte" style="shape=partialRectangle;html=1;whiteSpace=wrap;connectable=0;fillColor=#1ba1e2;top=0;left=0;bottom=0;right=0;overflow=hidden;pointerEvents=1;fontColor=#ffffff;strokeColor=#006EAF;" parent="pnntRmNtqDmFzkJrqk4B-36" vertex="1">
                    <mxGeometry width="80" height="30" as="geometry">
                        <mxRectangle width="80" height="30" as="alternateBounds"/>
                    </mxGeometry>
                </mxCell>
                <mxCell id="pnntRmNtqDmFzkJrqk4B-38" value="price of food is equal&amp;nbsp;or greater than price_gte" style="shape=partialRectangle;html=1;whiteSpace=wrap;connectable=0;fillColor=#f9f7ed;top=0;left=0;bottom=0;right=0;align=left;spacingLeft=6;overflow=hidden;strokeColor=#36393d;fontColor=#000000;" parent="pnntRmNtqDmFzkJrqk4B-36" vertex="1">
                    <mxGeometry x="80" width="320" height="30" as="geometry">
                        <mxRectangle width="320" height="30" as="alternateBounds"/>
                    </mxGeometry>
                </mxCell>
                <mxCell id="pnntRmNtqDmFzkJrqk4B-39" value="Float" style="shape=partialRectangle;html=1;whiteSpace=wrap;connectable=0;fillColor=#6d8764;top=0;left=0;bottom=0;right=0;align=left;spacingLeft=6;overflow=hidden;strokeColor=#3A5431;fontColor=#ffffff;" parent="pnntRmNtqDmFzkJrqk4B-36" vertex="1">
                    <mxGeometry x="400" width="40" height="30" as="geometry">
                        <mxRectangle width="40" height="30" as="alternateBounds"/>
                    </mxGeometry>
                </mxCell>
                <mxCell id="pnntRmNtqDmFzkJrqk4B-40" style="shape=tableRow;horizontal=0;startSize=0;swimlaneHead=0;swimlaneBody=0;top=0;left=0;bottom=0;right=0;collapsible=0;dropTarget=0;fillColor=none;points=[[0,0.5],[1,0.5]];portConstraint=eastwest;" parent="pnntRmNtqDmFzkJrqk4B-22" vertex="1">
                    <mxGeometry y="120" width="440" height="30" as="geometry"/>
                </mxCell>
                <mxCell id="pnntRmNtqDmFzkJrqk4B-41" value="point_lte" style="shape=partialRectangle;html=1;whiteSpace=wrap;connectable=0;fillColor=#1ba1e2;top=0;left=0;bottom=0;right=0;overflow=hidden;pointerEvents=1;fontColor=#ffffff;strokeColor=#006EAF;" parent="pnntRmNtqDmFzkJrqk4B-40" vertex="1">
                    <mxGeometry width="80" height="30" as="geometry">
                        <mxRectangle width="80" height="30" as="alternateBounds"/>
                    </mxGeometry>
                </mxCell>
                <mxCell id="pnntRmNtqDmFzkJrqk4B-42" value="point of food is equal or less than point_lte" style="shape=partialRectangle;html=1;whiteSpace=wrap;connectable=0;fillColor=#f9f7ed;top=0;left=0;bottom=0;right=0;align=left;spacingLeft=6;overflow=hidden;strokeColor=#36393d;fontColor=#000000;" parent="pnntRmNtqDmFzkJrqk4B-40" vertex="1">
                    <mxGeometry x="80" width="320" height="30" as="geometry">
                        <mxRectangle width="320" height="30" as="alternateBounds"/>
                    </mxGeometry>
                </mxCell>
                <mxCell id="pnntRmNtqDmFzkJrqk4B-43" value="Float" style="shape=partialRectangle;html=1;whiteSpace=wrap;connectable=0;fillColor=#6d8764;top=0;left=0;bottom=0;right=0;align=left;spacingLeft=6;overflow=hidden;strokeColor=#3A5431;fontColor=#ffffff;" parent="pnntRmNtqDmFzkJrqk4B-40" vertex="1">
                    <mxGeometry x="400" width="40" height="30" as="geometry">
                        <mxRectangle width="40" height="30" as="alternateBounds"/>
                    </mxGeometry>
                </mxCell>
                <mxCell id="pnntRmNtqDmFzkJrqk4B-44" style="shape=tableRow;horizontal=0;startSize=0;swimlaneHead=0;swimlaneBody=0;top=0;left=0;bottom=0;right=0;collapsible=0;dropTarget=0;fillColor=none;points=[[0,0.5],[1,0.5]];portConstraint=eastwest;" parent="pnntRmNtqDmFzkJrqk4B-22" vertex="1">
                    <mxGeometry y="150" width="440" height="30" as="geometry"/>
                </mxCell>
                <mxCell id="pnntRmNtqDmFzkJrqk4B-45" value="point_gte" style="shape=partialRectangle;html=1;whiteSpace=wrap;connectable=0;fillColor=#1ba1e2;top=0;left=0;bottom=0;right=0;overflow=hidden;pointerEvents=1;fontColor=#ffffff;strokeColor=#006EAF;" parent="pnntRmNtqDmFzkJrqk4B-44" vertex="1">
                    <mxGeometry width="80" height="30" as="geometry">
                        <mxRectangle width="80" height="30" as="alternateBounds"/>
                    </mxGeometry>
                </mxCell>
                <mxCell id="pnntRmNtqDmFzkJrqk4B-46" value="point of food is equal or greater than point_gte" style="shape=partialRectangle;html=1;whiteSpace=wrap;connectable=0;fillColor=#f9f7ed;top=0;left=0;bottom=0;right=0;align=left;spacingLeft=6;overflow=hidden;strokeColor=#36393d;fontColor=#000000;" parent="pnntRmNtqDmFzkJrqk4B-44" vertex="1">
                    <mxGeometry x="80" width="320" height="30" as="geometry">
                        <mxRectangle width="320" height="30" as="alternateBounds"/>
                    </mxGeometry>
                </mxCell>
                <mxCell id="pnntRmNtqDmFzkJrqk4B-47" value="Float" style="shape=partialRectangle;html=1;whiteSpace=wrap;connectable=0;fillColor=#6d8764;top=0;left=0;bottom=0;right=0;align=left;spacingLeft=6;overflow=hidden;strokeColor=#3A5431;fontColor=#ffffff;" parent="pnntRmNtqDmFzkJrqk4B-44" vertex="1">
                    <mxGeometry x="400" width="40" height="30" as="geometry">
                        <mxRectangle width="40" height="30" as="alternateBounds"/>
                    </mxGeometry>
                </mxCell>
                <mxCell id="pnntRmNtqDmFzkJrqk4B-48" style="shape=tableRow;horizontal=0;startSize=0;swimlaneHead=0;swimlaneBody=0;top=0;left=0;bottom=0;right=0;collapsible=0;dropTarget=0;fillColor=none;points=[[0,0.5],[1,0.5]];portConstraint=eastwest;" parent="pnntRmNtqDmFzkJrqk4B-22" vertex="1">
                    <mxGeometry y="180" width="440" height="30" as="geometry"/>
                </mxCell>
                <mxCell id="pnntRmNtqDmFzkJrqk4B-49" value="type_id" style="shape=partialRectangle;html=1;whiteSpace=wrap;connectable=0;fillColor=#1ba1e2;top=0;left=0;bottom=0;right=0;overflow=hidden;pointerEvents=1;fontColor=#ffffff;strokeColor=#006EAF;" parent="pnntRmNtqDmFzkJrqk4B-48" vertex="1">
                    <mxGeometry width="80" height="30" as="geometry">
                        <mxRectangle width="80" height="30" as="alternateBounds"/>
                    </mxGeometry>
                </mxCell>
                <mxCell id="pnntRmNtqDmFzkJrqk4B-50" value="food with type with its id is type_id" style="shape=partialRectangle;html=1;whiteSpace=wrap;connectable=0;fillColor=#f9f7ed;top=0;left=0;bottom=0;right=0;align=left;spacingLeft=6;overflow=hidden;strokeColor=#36393d;fontColor=#000000;" parent="pnntRmNtqDmFzkJrqk4B-48" vertex="1">
                    <mxGeometry x="80" width="320" height="30" as="geometry">
                        <mxRectangle width="320" height="30" as="alternateBounds"/>
                    </mxGeometry>
                </mxCell>
                <mxCell id="pnntRmNtqDmFzkJrqk4B-51" value="Int" style="shape=partialRectangle;html=1;whiteSpace=wrap;connectable=0;fillColor=#6d8764;top=0;left=0;bottom=0;right=0;align=left;spacingLeft=6;overflow=hidden;strokeColor=#3A5431;fontColor=#ffffff;" parent="pnntRmNtqDmFzkJrqk4B-48" vertex="1">
                    <mxGeometry x="400" width="40" height="30" as="geometry">
                        <mxRectangle width="40" height="30" as="alternateBounds"/>
                    </mxGeometry>
                </mxCell>
                <mxCell id="pnntRmNtqDmFzkJrqk4B-32" style="shape=tableRow;horizontal=0;startSize=0;swimlaneHead=0;swimlaneBody=0;top=0;left=0;bottom=0;right=0;collapsible=0;dropTarget=0;fillColor=none;points=[[0,0.5],[1,0.5]];portConstraint=eastwest;" parent="1" vertex="1">
                    <mxGeometry x="520" y="1260" width="440" height="30" as="geometry"/>
                </mxCell>
                <mxCell id="pnntRmNtqDmFzkJrqk4B-33" value="price_lte" style="shape=partialRectangle;html=1;whiteSpace=wrap;connectable=0;fillColor=#1ba1e2;top=0;left=0;bottom=0;right=0;overflow=hidden;pointerEvents=1;fontColor=#ffffff;strokeColor=#006EAF;" parent="pnntRmNtqDmFzkJrqk4B-32" vertex="1">
                    <mxGeometry width="80" height="30" as="geometry">
                        <mxRectangle width="80" height="30" as="alternateBounds"/>
                    </mxGeometry>
                </mxCell>
                <mxCell id="pnntRmNtqDmFzkJrqk4B-34" value="price of food is equal or less than price_lte" style="shape=partialRectangle;html=1;whiteSpace=wrap;connectable=0;fillColor=#f9f7ed;top=0;left=0;bottom=0;right=0;align=left;spacingLeft=6;overflow=hidden;strokeColor=#36393d;fontColor=#000000;" parent="pnntRmNtqDmFzkJrqk4B-32" vertex="1">
                    <mxGeometry x="80" width="320" height="30" as="geometry">
                        <mxRectangle width="320" height="30" as="alternateBounds"/>
                    </mxGeometry>
                </mxCell>
                <mxCell id="pnntRmNtqDmFzkJrqk4B-35" value="Float" style="shape=partialRectangle;html=1;whiteSpace=wrap;connectable=0;fillColor=#6d8764;top=0;left=0;bottom=0;right=0;align=left;spacingLeft=6;overflow=hidden;strokeColor=#3A5431;fontColor=#ffffff;" parent="pnntRmNtqDmFzkJrqk4B-32" vertex="1">
                    <mxGeometry x="400" width="40" height="30" as="geometry">
                        <mxRectangle width="40" height="30" as="alternateBounds"/>
                    </mxGeometry>
                </mxCell>
                <mxCell id="pnntRmNtqDmFzkJrqk4B-52" value="Form" style="shape=table;startSize=30;container=1;collapsible=0;childLayout=tableLayout;fixedRows=1;rowLines=0;fontStyle=1;fillColor=#f0a30a;fontColor=#000000;strokeColor=#BD7000;" parent="1" vertex="1">
                    <mxGeometry x="520" y="1580" width="440" height="150" as="geometry"/>
                </mxCell>
                <mxCell id="pnntRmNtqDmFzkJrqk4B-53" value="" style="shape=tableRow;horizontal=0;startSize=0;swimlaneHead=0;swimlaneBody=0;top=0;left=0;bottom=0;right=0;collapsible=0;dropTarget=0;fillColor=none;points=[[0,0.5],[1,0.5]];portConstraint=eastwest;" parent="pnntRmNtqDmFzkJrqk4B-52" vertex="1">
                    <mxGeometry y="30" width="440" height="30" as="geometry"/>
                </mxCell>
                <mxCell id="pnntRmNtqDmFzkJrqk4B-54" value="type" style="shape=partialRectangle;html=1;whiteSpace=wrap;connectable=0;fillColor=#1ba1e2;top=0;left=0;bottom=0;right=0;overflow=hidden;pointerEvents=1;fontColor=#ffffff;strokeColor=#006EAF;" parent="pnntRmNtqDmFzkJrqk4B-53" vertex="1">
                    <mxGeometry width="80" height="30" as="geometry">
                        <mxRectangle width="80" height="30" as="alternateBounds"/>
                    </mxGeometry>
                </mxCell>
                <mxCell id="pnntRmNtqDmFzkJrqk4B-55" value="type of food with its id is type" style="shape=partialRectangle;html=1;whiteSpace=wrap;connectable=0;fillColor=#f9f7ed;top=0;left=0;bottom=0;right=0;align=left;spacingLeft=6;overflow=hidden;strokeColor=#36393d;fontColor=#000000;" parent="pnntRmNtqDmFzkJrqk4B-53" vertex="1">
                    <mxGeometry x="80" width="320" height="30" as="geometry">
                        <mxRectangle width="320" height="30" as="alternateBounds"/>
                    </mxGeometry>
                </mxCell>
                <mxCell id="pnntRmNtqDmFzkJrqk4B-56" value="Int" style="shape=partialRectangle;html=1;whiteSpace=wrap;connectable=0;fillColor=#6d8764;top=0;left=0;bottom=0;right=0;align=left;spacingLeft=6;overflow=hidden;strokeColor=#3A5431;fontColor=#ffffff;" parent="pnntRmNtqDmFzkJrqk4B-53" vertex="1">
                    <mxGeometry x="400" width="40" height="30" as="geometry">
                        <mxRectangle width="40" height="30" as="alternateBounds"/>
                    </mxGeometry>
                </mxCell>
                <mxCell id="pnntRmNtqDmFzkJrqk4B-69" style="shape=tableRow;horizontal=0;startSize=0;swimlaneHead=0;swimlaneBody=0;top=0;left=0;bottom=0;right=0;collapsible=0;dropTarget=0;fillColor=none;points=[[0,0.5],[1,0.5]];portConstraint=eastwest;" parent="pnntRmNtqDmFzkJrqk4B-52" vertex="1">
                    <mxGeometry y="60" width="440" height="30" as="geometry"/>
                </mxCell>
                <mxCell id="pnntRmNtqDmFzkJrqk4B-70" value="chinese_name" style="shape=partialRectangle;html=1;whiteSpace=wrap;connectable=0;fillColor=#1ba1e2;top=0;left=0;bottom=0;right=0;overflow=hidden;fontColor=#ffffff;strokeColor=#006EAF;" parent="pnntRmNtqDmFzkJrqk4B-69" vertex="1">
                    <mxGeometry width="80" height="30" as="geometry">
                        <mxRectangle width="80" height="30" as="alternateBounds"/>
                    </mxGeometry>
                </mxCell>
                <mxCell id="pnntRmNtqDmFzkJrqk4B-71" value="chinese name of food" style="shape=partialRectangle;html=1;whiteSpace=wrap;connectable=0;fillColor=#f9f7ed;top=0;left=0;bottom=0;right=0;align=left;spacingLeft=6;overflow=hidden;strokeColor=#36393d;fontColor=#000000;" parent="pnntRmNtqDmFzkJrqk4B-69" vertex="1">
                    <mxGeometry x="80" width="320" height="30" as="geometry">
                        <mxRectangle width="320" height="30" as="alternateBounds"/>
                    </mxGeometry>
                </mxCell>
                <mxCell id="pnntRmNtqDmFzkJrqk4B-72" value="Str" style="shape=partialRectangle;html=1;whiteSpace=wrap;connectable=0;fillColor=#6d8764;top=0;left=0;bottom=0;right=0;align=left;spacingLeft=6;overflow=hidden;strokeColor=#3A5431;fontColor=#ffffff;" parent="pnntRmNtqDmFzkJrqk4B-69" vertex="1">
                    <mxGeometry x="400" width="40" height="30" as="geometry">
                        <mxRectangle width="40" height="30" as="alternateBounds"/>
                    </mxGeometry>
                </mxCell>
                <mxCell id="pnntRmNtqDmFzkJrqk4B-57" value="" style="shape=tableRow;horizontal=0;startSize=0;swimlaneHead=0;swimlaneBody=0;top=0;left=0;bottom=0;right=0;collapsible=0;dropTarget=0;fillColor=none;points=[[0,0.5],[1,0.5]];portConstraint=eastwest;" parent="pnntRmNtqDmFzkJrqk4B-52" vertex="1">
                    <mxGeometry y="90" width="440" height="30" as="geometry"/>
                </mxCell>
                <mxCell id="pnntRmNtqDmFzkJrqk4B-58" value="english_name" style="shape=partialRectangle;html=1;whiteSpace=wrap;connectable=0;fillColor=#1ba1e2;top=0;left=0;bottom=0;right=0;overflow=hidden;fontColor=#ffffff;strokeColor=#006EAF;" parent="pnntRmNtqDmFzkJrqk4B-57" vertex="1">
                    <mxGeometry width="80" height="30" as="geometry">
                        <mxRectangle width="80" height="30" as="alternateBounds"/>
                    </mxGeometry>
                </mxCell>
                <mxCell id="pnntRmNtqDmFzkJrqk4B-59" value="english name of food" style="shape=partialRectangle;html=1;whiteSpace=wrap;connectable=0;fillColor=#f9f7ed;top=0;left=0;bottom=0;right=0;align=left;spacingLeft=6;overflow=hidden;strokeColor=#36393d;fontColor=#000000;" parent="pnntRmNtqDmFzkJrqk4B-57" vertex="1">
                    <mxGeometry x="80" width="320" height="30" as="geometry">
                        <mxRectangle width="320" height="30" as="alternateBounds"/>
                    </mxGeometry>
                </mxCell>
                <mxCell id="pnntRmNtqDmFzkJrqk4B-60" value="Str" style="shape=partialRectangle;html=1;whiteSpace=wrap;connectable=0;fillColor=#6d8764;top=0;left=0;bottom=0;right=0;align=left;spacingLeft=6;overflow=hidden;strokeColor=#3A5431;fontColor=#ffffff;" parent="pnntRmNtqDmFzkJrqk4B-57" vertex="1">
                    <mxGeometry x="400" width="40" height="30" as="geometry">
                        <mxRectangle width="40" height="30" as="alternateBounds"/>
                    </mxGeometry>
                </mxCell>
                <mxCell id="pnntRmNtqDmFzkJrqk4B-77" style="shape=tableRow;horizontal=0;startSize=0;swimlaneHead=0;swimlaneBody=0;top=0;left=0;bottom=0;right=0;collapsible=0;dropTarget=0;fillColor=none;points=[[0,0.5],[1,0.5]];portConstraint=eastwest;" parent="pnntRmNtqDmFzkJrqk4B-52" vertex="1">
                    <mxGeometry y="120" width="440" height="30" as="geometry"/>
                </mxCell>
                <mxCell id="pnntRmNtqDmFzkJrqk4B-78" value="price" style="shape=partialRectangle;html=1;whiteSpace=wrap;connectable=0;fillColor=#1ba1e2;top=0;left=0;bottom=0;right=0;overflow=hidden;fontColor=#ffffff;strokeColor=#006EAF;" parent="pnntRmNtqDmFzkJrqk4B-77" vertex="1">
                    <mxGeometry width="80" height="30" as="geometry">
                        <mxRectangle width="80" height="30" as="alternateBounds"/>
                    </mxGeometry>
                </mxCell>
                <mxCell id="pnntRmNtqDmFzkJrqk4B-79" value="price of food" style="shape=partialRectangle;html=1;whiteSpace=wrap;connectable=0;fillColor=#f9f7ed;top=0;left=0;bottom=0;right=0;align=left;spacingLeft=6;overflow=hidden;strokeColor=#36393d;fontColor=#000000;" parent="pnntRmNtqDmFzkJrqk4B-77" vertex="1">
                    <mxGeometry x="80" width="320" height="30" as="geometry">
                        <mxRectangle width="320" height="30" as="alternateBounds"/>
                    </mxGeometry>
                </mxCell>
                <mxCell id="pnntRmNtqDmFzkJrqk4B-80" value="Float" style="shape=partialRectangle;html=1;whiteSpace=wrap;connectable=0;fillColor=#6d8764;top=0;left=0;bottom=0;right=0;align=left;spacingLeft=6;overflow=hidden;strokeColor=#3A5431;fontColor=#ffffff;" parent="pnntRmNtqDmFzkJrqk4B-77" vertex="1">
                    <mxGeometry x="400" width="40" height="30" as="geometry">
                        <mxRectangle width="40" height="30" as="alternateBounds"/>
                    </mxGeometry>
                </mxCell>
                <mxCell id="pnntRmNtqDmFzkJrqk4B-61" style="edgeStyle=orthogonalEdgeStyle;shape=link;html=1;strokeColor=#FF0000;strokeWidth=5;fontColor=#000000;" parent="1" source="pnntRmNtqDmFzkJrqk4B-2" target="pnntRmNtqDmFzkJrqk4B-22" edge="1">
                    <mxGeometry relative="1" as="geometry"/>
                </mxCell>
                <mxCell id="pnntRmNtqDmFzkJrqk4B-62" style="edgeStyle=orthogonalEdgeStyle;html=1;strokeColor=#FF0000;strokeWidth=5;fontColor=#000000;" parent="1" source="pnntRmNtqDmFzkJrqk4B-6" target="pnntRmNtqDmFzkJrqk4B-52" edge="1">
                    <mxGeometry relative="1" as="geometry"/>
                </mxCell>
                <mxCell id="pnntRmNtqDmFzkJrqk4B-63" style="edgeStyle=orthogonalEdgeStyle;html=1;entryX=0.5;entryY=0;entryDx=0;entryDy=0;strokeColor=#FF0000;strokeWidth=5;fontColor=#000000;" parent="1" source="pnntRmNtqDmFzkJrqk4B-14" target="pnntRmNtqDmFzkJrqk4B-52" edge="1">
                    <mxGeometry relative="1" as="geometry"/>
                </mxCell>
                <mxCell id="UZyuUnTX9UjX2vauxbsO-1" value="Order" style="shape=table;startSize=30;container=1;collapsible=0;childLayout=tableLayout;fixedRows=1;rowLines=0;fontStyle=1;fillColor=#008a00;fontColor=#ffffff;strokeColor=#005700;" parent="1" vertex="1">
                    <mxGeometry x="40" y="1940" width="440" height="180" as="geometry"/>
                </mxCell>
                <mxCell id="UZyuUnTX9UjX2vauxbsO-2" value="" style="shape=tableRow;horizontal=0;startSize=0;swimlaneHead=0;swimlaneBody=0;top=0;left=0;bottom=0;right=0;collapsible=0;dropTarget=0;fillColor=none;points=[[0,0.5],[1,0.5]];portConstraint=eastwest;" parent="UZyuUnTX9UjX2vauxbsO-1" vertex="1">
                    <mxGeometry y="30" width="440" height="30" as="geometry"/>
                </mxCell>
                <mxCell id="UZyuUnTX9UjX2vauxbsO-3" value="GET" style="shape=partialRectangle;html=1;whiteSpace=wrap;connectable=0;fillColor=#1ba1e2;top=0;left=0;bottom=0;right=0;overflow=hidden;pointerEvents=1;fontColor=#ffffff;strokeColor=#006EAF;" parent="UZyuUnTX9UjX2vauxbsO-2" vertex="1">
                    <mxGeometry width="55" height="30" as="geometry">
                        <mxRectangle width="55" height="30" as="alternateBounds"/>
                    </mxGeometry>
                </mxCell>
                <mxCell id="UZyuUnTX9UjX2vauxbsO-4" value="api/order" style="shape=partialRectangle;html=1;whiteSpace=wrap;connectable=0;fillColor=#f9f7ed;top=0;left=0;bottom=0;right=0;align=left;spacingLeft=6;overflow=hidden;strokeColor=#36393d;fontColor=#000000;" parent="UZyuUnTX9UjX2vauxbsO-2" vertex="1">
                    <mxGeometry x="55" width="145" height="30" as="geometry">
                        <mxRectangle width="145" height="30" as="alternateBounds"/>
                    </mxGeometry>
                </mxCell>
                <mxCell id="UZyuUnTX9UjX2vauxbsO-5" value="list all order, superuser only" style="shape=partialRectangle;html=1;whiteSpace=wrap;connectable=0;fillColor=#f9f7ed;top=0;left=0;bottom=0;right=0;align=left;spacingLeft=6;overflow=hidden;strokeColor=#36393d;fontColor=#000000;" parent="UZyuUnTX9UjX2vauxbsO-2" vertex="1">
                    <mxGeometry x="200" width="240" height="30" as="geometry">
                        <mxRectangle width="240" height="30" as="alternateBounds"/>
                    </mxGeometry>
                </mxCell>
                <mxCell id="UZyuUnTX9UjX2vauxbsO-6" value="" style="shape=tableRow;horizontal=0;startSize=0;swimlaneHead=0;swimlaneBody=0;top=0;left=0;bottom=0;right=0;collapsible=0;dropTarget=0;fillColor=none;points=[[0,0.5],[1,0.5]];portConstraint=eastwest;" parent="UZyuUnTX9UjX2vauxbsO-1" vertex="1">
                    <mxGeometry y="60" width="440" height="30" as="geometry"/>
                </mxCell>
                <mxCell id="UZyuUnTX9UjX2vauxbsO-7" value="POST" style="shape=partialRectangle;html=1;whiteSpace=wrap;connectable=0;fillColor=#1ba1e2;top=0;left=0;bottom=0;right=0;overflow=hidden;fontColor=#ffffff;strokeColor=#006EAF;" parent="UZyuUnTX9UjX2vauxbsO-6" vertex="1">
                    <mxGeometry width="55" height="30" as="geometry">
                        <mxRectangle width="55" height="30" as="alternateBounds"/>
                    </mxGeometry>
                </mxCell>
                <mxCell id="UZyuUnTX9UjX2vauxbsO-8" value="api/order" style="shape=partialRectangle;html=1;whiteSpace=wrap;connectable=0;fillColor=#f9f7ed;top=0;left=0;bottom=0;right=0;align=left;spacingLeft=6;overflow=hidden;strokeColor=#36393d;fontColor=#000000;" parent="UZyuUnTX9UjX2vauxbsO-6" vertex="1">
                    <mxGeometry x="55" width="145" height="30" as="geometry">
                        <mxRectangle width="145" height="30" as="alternateBounds"/>
                    </mxGeometry>
                </mxCell>
                <mxCell id="UZyuUnTX9UjX2vauxbsO-9" value="create new order" style="shape=partialRectangle;html=1;whiteSpace=wrap;connectable=0;fillColor=#f9f7ed;top=0;left=0;bottom=0;right=0;align=left;spacingLeft=6;overflow=hidden;strokeColor=#36393d;fontColor=#000000;" parent="UZyuUnTX9UjX2vauxbsO-6" vertex="1">
                    <mxGeometry x="200" width="240" height="30" as="geometry">
                        <mxRectangle width="240" height="30" as="alternateBounds"/>
                    </mxGeometry>
                </mxCell>
                <mxCell id="UZyuUnTX9UjX2vauxbsO-10" value="" style="shape=tableRow;horizontal=0;startSize=0;swimlaneHead=0;swimlaneBody=0;top=0;left=0;bottom=0;right=0;collapsible=0;dropTarget=0;fillColor=none;points=[[0,0.5],[1,0.5]];portConstraint=eastwest;" parent="UZyuUnTX9UjX2vauxbsO-1" vertex="1">
                    <mxGeometry y="90" width="440" height="30" as="geometry"/>
                </mxCell>
                <mxCell id="UZyuUnTX9UjX2vauxbsO-11" value="GET" style="shape=partialRectangle;html=1;whiteSpace=wrap;connectable=0;fillColor=#1ba1e2;top=0;left=0;bottom=0;right=0;overflow=hidden;fontColor=#ffffff;strokeColor=#006EAF;" parent="UZyuUnTX9UjX2vauxbsO-10" vertex="1">
                    <mxGeometry width="55" height="30" as="geometry">
                        <mxRectangle width="55" height="30" as="alternateBounds"/>
                    </mxGeometry>
                </mxCell>
                <mxCell id="UZyuUnTX9UjX2vauxbsO-12" value="api/order/&amp;lt;int:pk&amp;gt;" style="shape=partialRectangle;html=1;whiteSpace=wrap;connectable=0;fillColor=#f9f7ed;top=0;left=0;bottom=0;right=0;align=left;spacingLeft=6;overflow=hidden;strokeColor=#36393d;fontColor=#000000;" parent="UZyuUnTX9UjX2vauxbsO-10" vertex="1">
                    <mxGeometry x="55" width="145" height="30" as="geometry">
                        <mxRectangle width="145" height="30" as="alternateBounds"/>
                    </mxGeometry>
                </mxCell>
                <mxCell id="UZyuUnTX9UjX2vauxbsO-13" value="get a order with id and its ordered food, owner or superuser only" style="shape=partialRectangle;html=1;whiteSpace=wrap;connectable=0;fillColor=#f9f7ed;top=0;left=0;bottom=0;right=0;align=left;spacingLeft=6;overflow=hidden;strokeColor=#36393d;fontColor=#000000;" parent="UZyuUnTX9UjX2vauxbsO-10" vertex="1">
                    <mxGeometry x="200" width="240" height="30" as="geometry">
                        <mxRectangle width="240" height="30" as="alternateBounds"/>
                    </mxGeometry>
                </mxCell>
                <mxCell id="UZyuUnTX9UjX2vauxbsO-14" style="shape=tableRow;horizontal=0;startSize=0;swimlaneHead=0;swimlaneBody=0;top=0;left=0;bottom=0;right=0;collapsible=0;dropTarget=0;fillColor=none;points=[[0,0.5],[1,0.5]];portConstraint=eastwest;" parent="UZyuUnTX9UjX2vauxbsO-1" vertex="1">
                    <mxGeometry y="120" width="440" height="30" as="geometry"/>
                </mxCell>
                <mxCell id="UZyuUnTX9UjX2vauxbsO-15" value="PUT" style="shape=partialRectangle;html=1;whiteSpace=wrap;connectable=0;fillColor=#1ba1e2;top=0;left=0;bottom=0;right=0;overflow=hidden;fontColor=#ffffff;strokeColor=#006EAF;" parent="UZyuUnTX9UjX2vauxbsO-14" vertex="1">
                    <mxGeometry width="55" height="30" as="geometry">
                        <mxRectangle width="55" height="30" as="alternateBounds"/>
                    </mxGeometry>
                </mxCell>
                <mxCell id="UZyuUnTX9UjX2vauxbsO-16" value="api/order/&amp;lt;int:pk&amp;gt;" style="shape=partialRectangle;html=1;whiteSpace=wrap;connectable=0;fillColor=#f9f7ed;top=0;left=0;bottom=0;right=0;align=left;spacingLeft=6;overflow=hidden;strokeColor=#36393d;fontColor=#000000;" parent="UZyuUnTX9UjX2vauxbsO-14" vertex="1">
                    <mxGeometry x="55" width="145" height="30" as="geometry">
                        <mxRectangle width="145" height="30" as="alternateBounds"/>
                    </mxGeometry>
                </mxCell>
                <mxCell id="UZyuUnTX9UjX2vauxbsO-17" value="update the information of order with id, superuser only" style="shape=partialRectangle;html=1;whiteSpace=wrap;connectable=0;fillColor=#f9f7ed;top=0;left=0;bottom=0;right=0;align=left;spacingLeft=6;overflow=hidden;strokeColor=#36393d;fontColor=#000000;" parent="UZyuUnTX9UjX2vauxbsO-14" vertex="1">
                    <mxGeometry x="200" width="240" height="30" as="geometry">
                        <mxRectangle width="240" height="30" as="alternateBounds"/>
                    </mxGeometry>
                </mxCell>
                <mxCell id="UZyuUnTX9UjX2vauxbsO-18" style="shape=tableRow;horizontal=0;startSize=0;swimlaneHead=0;swimlaneBody=0;top=0;left=0;bottom=0;right=0;collapsible=0;dropTarget=0;fillColor=none;points=[[0,0.5],[1,0.5]];portConstraint=eastwest;" parent="UZyuUnTX9UjX2vauxbsO-1" vertex="1">
                    <mxGeometry y="150" width="440" height="30" as="geometry"/>
                </mxCell>
                <mxCell id="UZyuUnTX9UjX2vauxbsO-19" value="DELETE" style="shape=partialRectangle;html=1;whiteSpace=wrap;connectable=0;fillColor=#1ba1e2;top=0;left=0;bottom=0;right=0;overflow=hidden;fontColor=#ffffff;strokeColor=#006EAF;" parent="UZyuUnTX9UjX2vauxbsO-18" vertex="1">
                    <mxGeometry width="55" height="30" as="geometry">
                        <mxRectangle width="55" height="30" as="alternateBounds"/>
                    </mxGeometry>
                </mxCell>
                <mxCell id="UZyuUnTX9UjX2vauxbsO-20" value="api/order/&amp;lt;int:pk&amp;gt;" style="shape=partialRectangle;html=1;whiteSpace=wrap;connectable=0;fillColor=#f9f7ed;top=0;left=0;bottom=0;right=0;align=left;spacingLeft=6;overflow=hidden;strokeColor=#36393d;fontColor=#000000;" parent="UZyuUnTX9UjX2vauxbsO-18" vertex="1">
                    <mxGeometry x="55" width="145" height="30" as="geometry">
                        <mxRectangle width="145" height="30" as="alternateBounds"/>
                    </mxGeometry>
                </mxCell>
                <mxCell id="UZyuUnTX9UjX2vauxbsO-21" value="delete a order with id, superuser only" style="shape=partialRectangle;html=1;whiteSpace=wrap;connectable=0;fillColor=#f9f7ed;top=0;left=0;bottom=0;right=0;align=left;spacingLeft=6;overflow=hidden;strokeColor=#36393d;fontColor=#000000;" parent="UZyuUnTX9UjX2vauxbsO-18" vertex="1">
                    <mxGeometry x="200" width="240" height="30" as="geometry">
                        <mxRectangle width="240" height="30" as="alternateBounds"/>
                    </mxGeometry>
                </mxCell>
                <mxCell id="w3BJ0TU6PAfICTVOklsI-1" value="Filter" style="shape=table;startSize=30;container=1;collapsible=0;childLayout=tableLayout;fixedRows=1;rowLines=0;fontStyle=1;fillColor=#f0a30a;fontColor=#000000;strokeColor=#BD7000;" vertex="1" parent="1">
                    <mxGeometry x="520" y="1800" width="440" height="60" as="geometry"/>
                </mxCell>
                <mxCell id="w3BJ0TU6PAfICTVOklsI-2" value="" style="shape=tableRow;horizontal=0;startSize=0;swimlaneHead=0;swimlaneBody=0;top=0;left=0;bottom=0;right=0;collapsible=0;dropTarget=0;fillColor=none;points=[[0,0.5],[1,0.5]];portConstraint=eastwest;" vertex="1" parent="w3BJ0TU6PAfICTVOklsI-1">
                    <mxGeometry y="30" width="440" height="30" as="geometry"/>
                </mxCell>
                <mxCell id="w3BJ0TU6PAfICTVOklsI-3" value="" style="shape=partialRectangle;html=1;whiteSpace=wrap;connectable=0;fillColor=#1ba1e2;top=0;left=0;bottom=0;right=0;overflow=hidden;pointerEvents=1;fontColor=#ffffff;strokeColor=#006EAF;" vertex="1" parent="w3BJ0TU6PAfICTVOklsI-2">
                    <mxGeometry width="80" height="30" as="geometry">
                        <mxRectangle width="80" height="30" as="alternateBounds"/>
                    </mxGeometry>
                </mxCell>
                <mxCell id="w3BJ0TU6PAfICTVOklsI-4" value="" style="shape=partialRectangle;html=1;whiteSpace=wrap;connectable=0;fillColor=#f9f7ed;top=0;left=0;bottom=0;right=0;align=left;spacingLeft=6;overflow=hidden;strokeColor=#36393d;fontColor=#000000;" vertex="1" parent="w3BJ0TU6PAfICTVOklsI-2">
                    <mxGeometry x="80" width="320" height="30" as="geometry">
                        <mxRectangle width="320" height="30" as="alternateBounds"/>
                    </mxGeometry>
                </mxCell>
                <mxCell id="w3BJ0TU6PAfICTVOklsI-5" value="" style="shape=partialRectangle;html=1;whiteSpace=wrap;connectable=0;fillColor=#6d8764;top=0;left=0;bottom=0;right=0;align=left;spacingLeft=6;overflow=hidden;strokeColor=#3A5431;fontColor=#ffffff;" vertex="1" parent="w3BJ0TU6PAfICTVOklsI-2">
                    <mxGeometry x="400" width="40" height="30" as="geometry">
                        <mxRectangle width="40" height="30" as="alternateBounds"/>
                    </mxGeometry>
                </mxCell>
                <mxCell id="w3BJ0TU6PAfICTVOklsI-27" style="edgeStyle=orthogonalEdgeStyle;shape=link;html=1;strokeWidth=5;strokeColor=#FF0000;" edge="1" parent="1" source="UZyuUnTX9UjX2vauxbsO-2" target="w3BJ0TU6PAfICTVOklsI-1">
                    <mxGeometry relative="1" as="geometry">
                        <Array as="points">
                            <mxPoint x="500" y="1985"/>
                            <mxPoint x="500" y="1830"/>
                        </Array>
                    </mxGeometry>
                </mxCell>
                <mxCell id="w3BJ0TU6PAfICTVOklsI-28" value="Form" style="shape=table;startSize=30;container=1;collapsible=0;childLayout=tableLayout;fixedRows=1;rowLines=0;fontStyle=1;fillColor=#f0a30a;fontColor=#000000;strokeColor=#BD7000;" vertex="1" parent="1">
                    <mxGeometry x="600" y="1920" width="440" height="90" as="geometry"/>
                </mxCell>
                <mxCell id="w3BJ0TU6PAfICTVOklsI-29" value="" style="shape=tableRow;horizontal=0;startSize=0;swimlaneHead=0;swimlaneBody=0;top=0;left=0;bottom=0;right=0;collapsible=0;dropTarget=0;fillColor=none;points=[[0,0.5],[1,0.5]];portConstraint=eastwest;" vertex="1" parent="w3BJ0TU6PAfICTVOklsI-28">
                    <mxGeometry y="30" width="440" height="30" as="geometry"/>
                </mxCell>
                <mxCell id="w3BJ0TU6PAfICTVOklsI-30" value="table_id" style="shape=partialRectangle;html=1;whiteSpace=wrap;connectable=0;fillColor=#1ba1e2;top=0;left=0;bottom=0;right=0;overflow=hidden;pointerEvents=1;fontColor=#ffffff;strokeColor=#006EAF;" vertex="1" parent="w3BJ0TU6PAfICTVOklsI-29">
                    <mxGeometry width="80" height="30" as="geometry">
                        <mxRectangle width="80" height="30" as="alternateBounds"/>
                    </mxGeometry>
                </mxCell>
                <mxCell id="w3BJ0TU6PAfICTVOklsI-31" value="table of order with table id is table_id" style="shape=partialRectangle;html=1;whiteSpace=wrap;connectable=0;fillColor=#f9f7ed;top=0;left=0;bottom=0;right=0;align=left;spacingLeft=6;overflow=hidden;strokeColor=#36393d;fontColor=#000000;" vertex="1" parent="w3BJ0TU6PAfICTVOklsI-29">
                    <mxGeometry x="80" width="320" height="30" as="geometry">
                        <mxRectangle width="320" height="30" as="alternateBounds"/>
                    </mxGeometry>
                </mxCell>
                <mxCell id="w3BJ0TU6PAfICTVOklsI-32" value="Int" style="shape=partialRectangle;html=1;whiteSpace=wrap;connectable=0;fillColor=#6d8764;top=0;left=0;bottom=0;right=0;align=left;spacingLeft=6;overflow=hidden;strokeColor=#3A5431;fontColor=#ffffff;" vertex="1" parent="w3BJ0TU6PAfICTVOklsI-29">
                    <mxGeometry x="400" width="40" height="30" as="geometry">
                        <mxRectangle width="40" height="30" as="alternateBounds"/>
                    </mxGeometry>
                </mxCell>
                <mxCell id="w3BJ0TU6PAfICTVOklsI-33" style="shape=tableRow;horizontal=0;startSize=0;swimlaneHead=0;swimlaneBody=0;top=0;left=0;bottom=0;right=0;collapsible=0;dropTarget=0;fillColor=none;points=[[0,0.5],[1,0.5]];portConstraint=eastwest;" vertex="1" parent="w3BJ0TU6PAfICTVOklsI-28">
                    <mxGeometry y="60" width="440" height="30" as="geometry"/>
                </mxCell>
                <mxCell id="w3BJ0TU6PAfICTVOklsI-34" value="no_of_people" style="shape=partialRectangle;html=1;whiteSpace=wrap;connectable=0;fillColor=#1ba1e2;top=0;left=0;bottom=0;right=0;overflow=hidden;fontColor=#ffffff;strokeColor=#006EAF;" vertex="1" parent="w3BJ0TU6PAfICTVOklsI-33">
                    <mxGeometry width="80" height="30" as="geometry">
                        <mxRectangle width="80" height="30" as="alternateBounds"/>
                    </mxGeometry>
                </mxCell>
                <mxCell id="w3BJ0TU6PAfICTVOklsI-35" value="the number of people of order" style="shape=partialRectangle;html=1;whiteSpace=wrap;connectable=0;fillColor=#f9f7ed;top=0;left=0;bottom=0;right=0;align=left;spacingLeft=6;overflow=hidden;strokeColor=#36393d;fontColor=#000000;" vertex="1" parent="w3BJ0TU6PAfICTVOklsI-33">
                    <mxGeometry x="80" width="320" height="30" as="geometry">
                        <mxRectangle width="320" height="30" as="alternateBounds"/>
                    </mxGeometry>
                </mxCell>
                <mxCell id="w3BJ0TU6PAfICTVOklsI-36" value="Int" style="shape=partialRectangle;html=1;whiteSpace=wrap;connectable=0;fillColor=#6d8764;top=0;left=0;bottom=0;right=0;align=left;spacingLeft=6;overflow=hidden;strokeColor=#3A5431;fontColor=#ffffff;" vertex="1" parent="w3BJ0TU6PAfICTVOklsI-33">
                    <mxGeometry x="400" width="40" height="30" as="geometry">
                        <mxRectangle width="40" height="30" as="alternateBounds"/>
                    </mxGeometry>
                </mxCell>
                <mxCell id="w3BJ0TU6PAfICTVOklsI-45" style="edgeStyle=orthogonalEdgeStyle;html=1;strokeColor=#FF0000;strokeWidth=5;" edge="1" parent="1" source="UZyuUnTX9UjX2vauxbsO-6" target="w3BJ0TU6PAfICTVOklsI-28">
                    <mxGeometry relative="1" as="geometry"/>
                </mxCell>
                <mxCell id="w3BJ0TU6PAfICTVOklsI-46" value="Form" style="shape=table;startSize=30;container=1;collapsible=0;childLayout=tableLayout;fixedRows=1;rowLines=0;fontStyle=1;fillColor=#f0a30a;fontColor=#000000;strokeColor=#BD7000;" vertex="1" parent="1">
                    <mxGeometry x="600" y="2080" width="440" height="60" as="geometry"/>
                </mxCell>
                <mxCell id="w3BJ0TU6PAfICTVOklsI-47" value="" style="shape=tableRow;horizontal=0;startSize=0;swimlaneHead=0;swimlaneBody=0;top=0;left=0;bottom=0;right=0;collapsible=0;dropTarget=0;fillColor=none;points=[[0,0.5],[1,0.5]];portConstraint=eastwest;" vertex="1" parent="w3BJ0TU6PAfICTVOklsI-46">
                    <mxGeometry y="30" width="440" height="30" as="geometry"/>
                </mxCell>
                <mxCell id="w3BJ0TU6PAfICTVOklsI-48" value="complete" style="shape=partialRectangle;html=1;whiteSpace=wrap;connectable=0;fillColor=#1ba1e2;top=0;left=0;bottom=0;right=0;overflow=hidden;pointerEvents=1;fontColor=#ffffff;strokeColor=#006EAF;" vertex="1" parent="w3BJ0TU6PAfICTVOklsI-47">
                    <mxGeometry width="80" height="30" as="geometry">
                        <mxRectangle width="80" height="30" as="alternateBounds"/>
                    </mxGeometry>
                </mxCell>
                <mxCell id="w3BJ0TU6PAfICTVOklsI-49" value="order is complete or not. Default is False" style="shape=partialRectangle;html=1;whiteSpace=wrap;connectable=0;fillColor=#f9f7ed;top=0;left=0;bottom=0;right=0;align=left;spacingLeft=6;overflow=hidden;strokeColor=#36393d;fontColor=#000000;" vertex="1" parent="w3BJ0TU6PAfICTVOklsI-47">
                    <mxGeometry x="80" width="320" height="30" as="geometry">
                        <mxRectangle width="320" height="30" as="alternateBounds"/>
                    </mxGeometry>
                </mxCell>
                <mxCell id="w3BJ0TU6PAfICTVOklsI-50" value="Int" style="shape=partialRectangle;html=1;whiteSpace=wrap;connectable=0;fillColor=#6d8764;top=0;left=0;bottom=0;right=0;align=left;spacingLeft=6;overflow=hidden;strokeColor=#3A5431;fontColor=#ffffff;" vertex="1" parent="w3BJ0TU6PAfICTVOklsI-47">
                    <mxGeometry x="400" width="40" height="30" as="geometry">
                        <mxRectangle width="40" height="30" as="alternateBounds"/>
                    </mxGeometry>
                </mxCell>
                <mxCell id="w3BJ0TU6PAfICTVOklsI-55" style="edgeStyle=orthogonalEdgeStyle;html=1;strokeColor=#FF0000;strokeWidth=5;" edge="1" parent="1" source="UZyuUnTX9UjX2vauxbsO-14" target="w3BJ0TU6PAfICTVOklsI-46">
                    <mxGeometry relative="1" as="geometry"/>
                </mxCell>
                <mxCell id="pQva9gnk36-3fQDxJOU6-27" style="edgeStyle=orthogonalEdgeStyle;html=1;strokeColor=#FF0000;strokeWidth=5;" edge="1" parent="1" source="pQva9gnk36-3fQDxJOU6-1" target="pQva9gnk36-3fQDxJOU6-22">
                    <mxGeometry relative="1" as="geometry"/>
                </mxCell>
                <mxCell id="pQva9gnk36-3fQDxJOU6-1" value="OrderFood" style="shape=table;startSize=30;container=1;collapsible=0;childLayout=tableLayout;fixedRows=1;rowLines=0;fontStyle=1;fillColor=#d80073;fontColor=#ffffff;strokeColor=#A50040;" vertex="1" parent="1">
                    <mxGeometry x="40" y="2280" width="440" height="60" as="geometry"/>
                </mxCell>
                <mxCell id="pQva9gnk36-3fQDxJOU6-6" value="" style="shape=tableRow;horizontal=0;startSize=0;swimlaneHead=0;swimlaneBody=0;top=0;left=0;bottom=0;right=0;collapsible=0;dropTarget=0;fillColor=none;points=[[0,0.5],[1,0.5]];portConstraint=eastwest;" vertex="1" parent="pQva9gnk36-3fQDxJOU6-1">
                    <mxGeometry y="30" width="440" height="30" as="geometry"/>
                </mxCell>
                <mxCell id="pQva9gnk36-3fQDxJOU6-7" value="POST" style="shape=partialRectangle;html=1;whiteSpace=wrap;connectable=0;fillColor=#1ba1e2;top=0;left=0;bottom=0;right=0;overflow=hidden;fontColor=#ffffff;strokeColor=#006EAF;" vertex="1" parent="pQva9gnk36-3fQDxJOU6-6">
                    <mxGeometry width="55" height="30" as="geometry">
                        <mxRectangle width="55" height="30" as="alternateBounds"/>
                    </mxGeometry>
                </mxCell>
                <mxCell id="pQva9gnk36-3fQDxJOU6-8" value="api/order-food" style="shape=partialRectangle;html=1;whiteSpace=wrap;connectable=0;fillColor=#f9f7ed;top=0;left=0;bottom=0;right=0;align=left;spacingLeft=6;overflow=hidden;strokeColor=#36393d;fontColor=#000000;" vertex="1" parent="pQva9gnk36-3fQDxJOU6-6">
                    <mxGeometry x="55" width="145" height="30" as="geometry">
                        <mxRectangle width="145" height="30" as="alternateBounds"/>
                    </mxGeometry>
                </mxCell>
                <mxCell id="pQva9gnk36-3fQDxJOU6-9" value="add food into order which is owed by user" style="shape=partialRectangle;html=1;whiteSpace=wrap;connectable=0;fillColor=#f9f7ed;top=0;left=0;bottom=0;right=0;align=left;spacingLeft=6;overflow=hidden;strokeColor=#36393d;fontColor=#000000;" vertex="1" parent="pQva9gnk36-3fQDxJOU6-6">
                    <mxGeometry x="200" width="240" height="30" as="geometry">
                        <mxRectangle width="240" height="30" as="alternateBounds"/>
                    </mxGeometry>
                </mxCell>
                <mxCell id="pQva9gnk36-3fQDxJOU6-22" value="Form" style="shape=table;startSize=30;container=1;collapsible=0;childLayout=tableLayout;fixedRows=1;rowLines=0;fontStyle=1;fillColor=#f0a30a;fontColor=#000000;strokeColor=#BD7000;" vertex="1" parent="1">
                    <mxGeometry x="600" y="2250" width="440" height="120" as="geometry"/>
                </mxCell>
                <mxCell id="pQva9gnk36-3fQDxJOU6-23" value="" style="shape=tableRow;horizontal=0;startSize=0;swimlaneHead=0;swimlaneBody=0;top=0;left=0;bottom=0;right=0;collapsible=0;dropTarget=0;fillColor=none;points=[[0,0.5],[1,0.5]];portConstraint=eastwest;" vertex="1" parent="pQva9gnk36-3fQDxJOU6-22">
                    <mxGeometry y="30" width="440" height="30" as="geometry"/>
                </mxCell>
                <mxCell id="pQva9gnk36-3fQDxJOU6-24" value="food_id" style="shape=partialRectangle;html=1;whiteSpace=wrap;connectable=0;fillColor=#1ba1e2;top=0;left=0;bottom=0;right=0;overflow=hidden;pointerEvents=1;fontColor=#ffffff;strokeColor=#006EAF;" vertex="1" parent="pQva9gnk36-3fQDxJOU6-23">
                    <mxGeometry width="80" height="30" as="geometry">
                        <mxRectangle width="80" height="30" as="alternateBounds"/>
                    </mxGeometry>
                </mxCell>
                <mxCell id="pQva9gnk36-3fQDxJOU6-25" value="food with id is food_id" style="shape=partialRectangle;html=1;whiteSpace=wrap;connectable=0;fillColor=#f9f7ed;top=0;left=0;bottom=0;right=0;align=left;spacingLeft=6;overflow=hidden;strokeColor=#36393d;fontColor=#000000;" vertex="1" parent="pQva9gnk36-3fQDxJOU6-23">
                    <mxGeometry x="80" width="320" height="30" as="geometry">
                        <mxRectangle width="320" height="30" as="alternateBounds"/>
                    </mxGeometry>
                </mxCell>
                <mxCell id="pQva9gnk36-3fQDxJOU6-26" value="Int" style="shape=partialRectangle;html=1;whiteSpace=wrap;connectable=0;fillColor=#6d8764;top=0;left=0;bottom=0;right=0;align=left;spacingLeft=6;overflow=hidden;strokeColor=#3A5431;fontColor=#ffffff;" vertex="1" parent="pQva9gnk36-3fQDxJOU6-23">
                    <mxGeometry x="400" width="40" height="30" as="geometry">
                        <mxRectangle width="40" height="30" as="alternateBounds"/>
                    </mxGeometry>
                </mxCell>
                <mxCell id="pQva9gnk36-3fQDxJOU6-28" style="shape=tableRow;horizontal=0;startSize=0;swimlaneHead=0;swimlaneBody=0;top=0;left=0;bottom=0;right=0;collapsible=0;dropTarget=0;fillColor=none;points=[[0,0.5],[1,0.5]];portConstraint=eastwest;" vertex="1" parent="pQva9gnk36-3fQDxJOU6-22">
                    <mxGeometry y="60" width="440" height="30" as="geometry"/>
                </mxCell>
                <mxCell id="pQva9gnk36-3fQDxJOU6-29" value="number" style="shape=partialRectangle;html=1;whiteSpace=wrap;connectable=0;fillColor=#1ba1e2;top=0;left=0;bottom=0;right=0;overflow=hidden;pointerEvents=1;fontColor=#ffffff;strokeColor=#006EAF;" vertex="1" parent="pQva9gnk36-3fQDxJOU6-28">
                    <mxGeometry width="80" height="30" as="geometry">
                        <mxRectangle width="80" height="30" as="alternateBounds"/>
                    </mxGeometry>
                </mxCell>
                <mxCell id="pQva9gnk36-3fQDxJOU6-30" value="how many the food has been ordered" style="shape=partialRectangle;html=1;whiteSpace=wrap;connectable=0;fillColor=#f9f7ed;top=0;left=0;bottom=0;right=0;align=left;spacingLeft=6;overflow=hidden;strokeColor=#36393d;fontColor=#000000;" vertex="1" parent="pQva9gnk36-3fQDxJOU6-28">
                    <mxGeometry x="80" width="320" height="30" as="geometry">
                        <mxRectangle width="320" height="30" as="alternateBounds"/>
                    </mxGeometry>
                </mxCell>
                <mxCell id="pQva9gnk36-3fQDxJOU6-31" value="Int" style="shape=partialRectangle;html=1;whiteSpace=wrap;connectable=0;fillColor=#6d8764;top=0;left=0;bottom=0;right=0;align=left;spacingLeft=6;overflow=hidden;strokeColor=#3A5431;fontColor=#ffffff;" vertex="1" parent="pQva9gnk36-3fQDxJOU6-28">
                    <mxGeometry x="400" width="40" height="30" as="geometry">
                        <mxRectangle width="40" height="30" as="alternateBounds"/>
                    </mxGeometry>
                </mxCell>
                <mxCell id="pQva9gnk36-3fQDxJOU6-32" style="shape=tableRow;horizontal=0;startSize=0;swimlaneHead=0;swimlaneBody=0;top=0;left=0;bottom=0;right=0;collapsible=0;dropTarget=0;fillColor=none;points=[[0,0.5],[1,0.5]];portConstraint=eastwest;" vertex="1" parent="pQva9gnk36-3fQDxJOU6-22">
                    <mxGeometry y="90" width="440" height="30" as="geometry"/>
                </mxCell>
                <mxCell id="pQva9gnk36-3fQDxJOU6-33" value="order_id" style="shape=partialRectangle;html=1;whiteSpace=wrap;connectable=0;fillColor=#1ba1e2;top=0;left=0;bottom=0;right=0;overflow=hidden;pointerEvents=1;fontColor=#ffffff;strokeColor=#006EAF;" vertex="1" parent="pQva9gnk36-3fQDxJOU6-32">
                    <mxGeometry width="80" height="30" as="geometry">
                        <mxRectangle width="80" height="30" as="alternateBounds"/>
                    </mxGeometry>
                </mxCell>
                <mxCell id="pQva9gnk36-3fQDxJOU6-34" value="order with id is order_id" style="shape=partialRectangle;html=1;whiteSpace=wrap;connectable=0;fillColor=#f9f7ed;top=0;left=0;bottom=0;right=0;align=left;spacingLeft=6;overflow=hidden;strokeColor=#36393d;fontColor=#000000;" vertex="1" parent="pQva9gnk36-3fQDxJOU6-32">
                    <mxGeometry x="80" width="320" height="30" as="geometry">
                        <mxRectangle width="320" height="30" as="alternateBounds"/>
                    </mxGeometry>
                </mxCell>
                <mxCell id="pQva9gnk36-3fQDxJOU6-35" value="Int" style="shape=partialRectangle;html=1;whiteSpace=wrap;connectable=0;fillColor=#6d8764;top=0;left=0;bottom=0;right=0;align=left;spacingLeft=6;overflow=hidden;strokeColor=#3A5431;fontColor=#ffffff;" vertex="1" parent="pQva9gnk36-3fQDxJOU6-32">
                    <mxGeometry x="400" width="40" height="30" as="geometry">
                        <mxRectangle width="40" height="30" as="alternateBounds"/>
                    </mxGeometry>
                </mxCell>
            </root>
        </mxGraphModel>
    </diagram>
</mxfile>